<svg xmlns="http://www.w3.org/2000/svg" viewBox="0 0 2086 2139"><defs><style>.cls-1{fill:#fff;}.cls-2{fill:#c69c6d;}.cls-3,.cls-5{fill:#8aecff;}.cls-10,.cls-13,.cls-3,.cls-5,.cls-9{stroke:#000;}.cls-10,.cls-13,.cls-14,.cls-15,.cls-16,.cls-17,.cls-3,.cls-5,.cls-9{stroke-miterlimit:10;}.cls-3,.cls-9{stroke-width:7px;}.cls-4{font-size:70px;}.cls-11,.cls-4,.cls-6,.cls-8{font-family:ArialMT, Arial;}.cls-10,.cls-13,.cls-5{stroke-width:5px;}.cls-11,.cls-6{font-size:50px;}.cls-7{letter-spacing:-0.11084em;}.cls-8{font-size:40px;}.cls-13,.cls-14,.cls-15,.cls-16,.cls-17,.cls-9{fill:none;}.cls-11{fill:#8c6239;}.cls-12{letter-spacing:-0.05518em;}.cls-14,.cls-15,.cls-16,.cls-17{stroke:#a67c52;stroke-width:10px;}.cls-15{stroke-dasharray:40.16535 40.16535;}.cls-16{stroke-dasharray:46.67071 46.67071;}.cls-17{stroke-dasharray:47.93115 47.93115;}</style></defs><g id="圖層_2" data-name="圖層 2"><rect class="cls-1" width="2086" height="2139"/></g><g id="圖層_1" data-name="圖層 1"><rect class="cls-2" x="339" y="556" width="508" height="200" rx="84.35976"/><rect class="cls-2" x="1223" y="557" width="508" height="200" rx="84.35976"/><rect class="cls-3" x="77.58008" y="73.0963" width="253" height="141" rx="70.49993"/><text class="cls-4" transform="translate(139.89063 162.26697)">Infix</text><rect class="cls-5" x="640.61384" y="799.89744" width="202.88616" height="88.60135" rx="44.30063"/><text class="cls-6" transform="translate(692.93896 857.5343)">push</text><rect class="cls-5" x="266.61384" y="2011.89744" width="202.88616" height="88.60135" rx="44.30063"/><text class="cls-6" transform="translate(318.93897 2069.5343)">push</text><text class="cls-6" transform="translate(444.89062 243.92749)">char Infix<tspan class="cls-7" x="202.85645" y="0">T</tspan><tspan x="227.85645" y="0">oPostfix()</tspan></text><text class="cls-6" transform="translate(369.38379 646.92749)">char Infix<tspan class="cls-7" x="202.85645" y="0">T</tspan><tspan x="227.85645" y="0">oPostfix()</tspan></text><text class="cls-8" transform="translate(432.21687 703.90173)">switch( ch=infix[i] )</text><text class="cls-6" transform="translate(1330.98535 640.92749)">double eval()</text><text class="cls-8" transform="translate(1333.27051 705.90173)">switch(postfix[i])</text><text class="cls-8" transform="translate(539.14265 814.90173)">true</text><text class="cls-8" transform="translate(407.88875 979.7572)">false</text><text class="cls-8" transform="translate(407.88875 1305.7572)">false</text><text class="cls-8" transform="translate(407.88875 1546.7572)">false</text><text class="cls-6" transform="translate(1344.89063 243.92749)">double eval()</text><text class="cls-6" transform="translate(1460.32813 342.70483)">double cal()</text><text class="cls-6" transform="translate(574.32813 400.70483)">push(char elem)</text><text class="cls-6" transform="translate(574.32813 332.70483)">int pr(char op)</text><text class="cls-6" transform="translate(572.32813 467.70483)">char pop()</text><rect class="cls-3" x="1022.20577" y="73.0963" width="293.29423" height="141" rx="70.49993"/><line x1="327" y1="143.37066" x2="1023" y2="143.61377"/><line class="cls-9" x1="327" y1="143.37067" x2="980.75391" y2="143.59901"/><path d="M1023,143.61377c-19.88116,7.369-44.54993,19.94536-59.84314,33.27013L975.21,143.59708l-12.02985-33.28836C978.464,123.64409,1003.124,136.23772,1023,143.61377Z"/><line x1="1319" y1="143.59287" x2="1706" y2="143.59287"/><line class="cls-9" x1="1319" y1="143.59288" x2="1663.75391" y2="143.59288"/><path d="M1706,143.59288c-19.87866,7.376-44.543,19.96091-59.83154,33.291l12.0415-33.291-12.0415-33.28416C1661.457,123.63874,1686.12134,136.22377,1706,143.59288Z"/><text class="cls-4" transform="translate(1070.89063 162.26697)">postfix</text><rect class="cls-3" x="1706.20577" y="73.0963" width="284.29423" height="141" rx="70.49993"/><text class="cls-4" transform="translate(1764.6814 162.26673)">value</text><path class="cls-9" d="M1378,276.5v35.51314a15.928,15.928,0,0,0,15.928,15.928H1430"/><polyline class="cls-9" points="489 275 489 317.941 541 317.941"/><polyline class="cls-9" points="489.5 318 489 390.941 541 390.941"/><path class="cls-9" d="M489,387.5v52.30038a13.1408,13.1408,0,0,0,13.1408,13.1408H541"/><line class="cls-10" x1="477.91451" y1="843.94366" x2="640" y2="843.94366"/><rect class="cls-5" x="640.61384" y="1082.89744" width="407.88616" height="88.60135" rx="44.30063"/><path class="cls-5" d="M1980.13414,1698.5H1580.97969c-25.54622,0-46.25553-19.83407-46.25553-44.30063V1532.19808c0-24.46657,20.70931-44.30064,46.25553-44.30064h399.15445c25.54623,0,46.25554,19.83407,46.25554,44.30064v122.00129C2026.38968,1678.66593,2005.68037,1698.5,1980.13414,1698.5Z"/><text class="cls-6" transform="translate(692.93896 1140.5343)">directly output</text><text class="cls-6" transform="translate(1579.04297 1546.53479)">turn into floating <tspan x="0" y="60">point type atof() </tspan><tspan x="0" y="120">and push in stack </tspan></text><text class="cls-11" transform="translate(1195.04297 1907.53479)">I instert some to &apos; # &apos; to distinguish<tspan x="0" y="60">between two numbers, so the if else</tspan><tspan x="0" y="120">statement might be more complicated</tspan></text><text class="cls-8" transform="translate(540.14265 1096.90173)">true</text><line class="cls-10" x1="513.91451" y1="1125.94366" x2="640" y2="1125.94366"/><polygon class="cls-5" points="477.5 844.5 368 775.445 257.5 844.5 368 912.555 477.5 844.5"/><text class="cls-6" transform="translate(359.939 857.5343)">(</text><polygon class="cls-5" points="521.5 1126.5 369.539 1017.5 223.5 1127.267 370.5 1235.5 521.5 1126.5"/><text class="cls-6" transform="translate(265.939 1138.5343)">isalnum()</text><line class="cls-10" x1="368" y1="912.555" x2="368" y2="1016.78723"/><rect class="cls-5" x="643.61383" y="1365.89744" width="414.88616" height="88.60135" rx="44.30063"/><text class="cls-6" transform="translate(695.93896 1423.5343)">pop up until &apos; ( &apos;</text><text class="cls-8" transform="translate(542.14265 1380.90173)">true</text><line class="cls-10" x1="480.91451" y1="1409.94366" x2="643" y2="1409.94366"/><rect class="cls-5" x="857.61384" y="1675.89744" width="414.88616" height="137.60256" rx="44.30063"/><text class="cls-6" transform="translate(881.46729 1733.5343)">pop up operator <tspan x="98.71826" y="60">in stack</tspan></text><text class="cls-8" transform="translate(733.14264 1715.90173)">true</text><line class="cls-10" x1="694.91451" y1="1744.94366" x2="857" y2="1744.94366"/><polygon class="cls-5" points="480.5 1410.5 371 1341.445 260.5 1410.5 371 1478.555 480.5 1410.5"/><text class="cls-6" transform="translate(362.939 1423.5343)">)</text><line class="cls-10" x1="371.25" y1="1235.555" x2="371.25" y2="1339.78723"/><text class="cls-8" transform="translate(406.88875 1977.7572)">false</text><line class="cls-10" x1="370.25" y1="1907.555" x2="370.25" y2="2011.78723"/><line class="cls-10" x1="371.25" y1="1480.555" x2="371.25" y2="1584.78723"/><path class="cls-5" d="M658.5,1115.25"/><path class="cls-5" d="M366.75,1127.25"/><path class="cls-5" d="M374.5,1127.25"/><path class="cls-5" d="M252.75,1115.25"/><path class="cls-5" d="M455.5,1005.5"/><path class="cls-5" d="M370.5,1127.25"/><path class="cls-5" d="M370.5,1235.25"/><path class="cls-5" d="M374.38191,1126.25"/><path class="cls-5" d="M308.5,1114.25"/><rect class="cls-5" x="1534.34315" y="814.75634" width="494.94328" height="444.60256" rx="44.30063"/><text class="cls-6" transform="translate(1546.91467 900.39368)">take 2 operands and <tspan x="44.51904" y="60">current operato</tspan><tspan class="cls-12" x="383.60596" y="60">r</tspan><tspan x="397.49756" y="60">, </tspan><tspan x="58.43506" y="120">then call cal() to</tspan><tspan x="23.62061" y="180">evaluate and push </tspan><tspan x="98.71826" y="240">result in the </tspan><tspan x="100.10986" y="300">top of stack </tspan></text><text class="cls-8" transform="translate(1418.14258 1011.90173)">true</text><text class="cls-8" transform="translate(1291.88873 1305.7572)">false</text><text class="cls-8" transform="translate(1363.88873 1557.7572)">oprand</text><line class="cls-10" x1="1363.91451" y1="1038.94366" x2="1535" y2="1038.5"/><polygon class="cls-5" points="1363.5 1039.5 1254 970.445 1143.5 1039.5 1254 1107.555 1363.5 1039.5"/><text class="cls-6" transform="translate(1225.93896 1052.5343)">+-*/</text><path class="cls-5" d="M1151.75,1324.25"/><path class="cls-5" d="M1364.5,1307.5"/><path class="cls-5" d="M1207.5,1323.25"/><polygon class="cls-5" points="693.5 1745.5 369.5 1584.5 49.5 1745.5 369.5 1905.5 693.5 1745.5"/><path class="cls-5" d="M1408.35461,1251.44007"/><path class="cls-5" d="M1401.80662,1251.44007"/><path class="cls-5" d="M1408.1613,1249.81491"/><text class="cls-6" transform="translate(158.12451 1734.5343)">priority of operator <tspan x="5.52979" y="60">in stack &gt;= read in</tspan></text><path class="cls-5" d="M369.5,1584.82979"/><path class="cls-5" d="M369.5,1745.0343"/><polyline class="cls-13" points="1254 1107.555 1254 1593.199 1534.343 1593.199"/><line class="cls-14" x1="1090.56097" y1="676.78162" x2="1090.56097" y2="696.78162"/><line class="cls-15" x1="1090.56097" y1="736.94696" x2="1090.56097" y2="1600.50195"/><polyline class="cls-14" points="1090.561 1620.585 1090.561 1640.585 1110.561 1640.585"/><line class="cls-16" x1="1157.23169" y1="1640.58459" x2="1320.5791" y2="1640.58459"/><polyline class="cls-14" points="1343.915 1640.585 1363.915 1640.585 1363.915 1660.585"/><line class="cls-17" x1="1363.91455" y1="1708.51575" x2="1363.91455" y2="1780.41248"/><line class="cls-14" x1="1363.91455" y1="1804.37805" x2="1363.91455" y2="1824.37805"/></g></svg>