<svg xmlns="http://www.w3.org/2000/svg" viewBox="0 0 2151 4751"><defs><style>.cls-1{fill:#fff;}.cls-2{fill:#dffbff;}.cls-11,.cls-16,.cls-3,.cls-5{font-size:70px;}.cls-10,.cls-11,.cls-12,.cls-16,.cls-3,.cls-9{font-family:ArialMT, Arial;}.cls-10,.cls-4,.cls-9{font-size:50px;}.cls-14,.cls-17,.cls-18,.cls-6,.cls-7{fill:none;}.cls-19,.cls-6{stroke:#000;}.cls-17,.cls-18,.cls-19,.cls-6,.cls-7{stroke-miterlimit:10;}.cls-14,.cls-17,.cls-18,.cls-19,.cls-6,.cls-7{stroke-width:7px;}.cls-7{stroke:red;}.cls-10,.cls-16,.cls-8{fill:red;}.cls-11{letter-spacing:-0.05518em;}.cls-12{font-size:57.7912px;}.cls-13{font-size:80.90768px;}.cls-14,.cls-17,.cls-18{stroke:#ed1c24;}.cls-14,.cls-17{stroke-linecap:round;}.cls-14{stroke-linejoin:round;}.cls-15{fill:#ed1c24;}.cls-19{fill:#8aecff;}</style></defs><g id="圖層_3" data-name="圖層 3"><rect class="cls-1" x="0.5" y="0.5" width="2150" height="4750"/><path d="M2150,1V4750H1V1H2150m1-1H0V4751H2151V0Z"/></g><g id="背景"><rect class="cls-2" x="718" y="34" width="1359" height="784" rx="132.17021"/><rect class="cls-2" x="718" y="854" width="1359" height="511" rx="132.17021"/><rect class="cls-2" x="733" y="1415" width="1359" height="287" rx="132.17021"/><rect class="cls-2" x="308" y="2213" width="1607" height="596" rx="132.17021"/><rect class="cls-2" x="287" y="2872" width="1607" height="596" rx="132.17021"/><rect class="cls-2" x="287" y="3518" width="1607" height="547" rx="132.17021"/><rect class="cls-2" x="293" y="4115" width="1607" height="554" rx="132.17021"/></g><g id="圖層_1" data-name="圖層 1"><text class="cls-3" transform="translate(1290.74805 109.36777)">push()<tspan class="cls-4"><tspan x="-198.18848" y="84">adds at the front of the list</tspan><tspan class="cls-5" x="377.15332" y="84"> </tspan></tspan></text><text class="cls-3" transform="translate(1236.31738 919.3678)">print_list()</text><text class="cls-3" transform="translate(888.2395 2125.3678)">reverse_list()</text><text class="cls-3" transform="translate(1294.78271 1497.3678)">clear()</text><text class="cls-3" transform="translate(819.46417 2956.07349)">2.cur-&gt;next = prev</text><text class="cls-3" transform="translate(915.22467 3596.91113)">3.prev = cur</text><text class="cls-3" transform="translate(827.39557 2287.73633)">1.next = cur-&gt;next</text><text class="cls-3" transform="translate(925.64532 4202.74878)">4.cur = next</text><line class="cls-6" x1="1099.76877" y1="137.97872" x2="1680.14081" y2="137.97872"/><line class="cls-6" x1="1210.08946" y1="957.97872" x2="1569.82069" y2="957.97872"/><line class="cls-6" x1="1276.12481" y1="1524.97872" x2="1511.78535" y2="1524.5"/><line class="cls-6" x1="867.15333" y1="2156.5" x2="1313.84179" y2="2156.5"/><g id="_4-4" data-name="4-4"><line class="cls-7" x1="911.56647" y1="4336.5" x2="986.12518" y2="4458.2793"/><path class="cls-8" d="M1001.56647,4483.5c-11.66919-9.17139-28.19739-19.2959-41.74347-23.55127l24.27582-4.979,15.4693-19.3545C997.19818,4449.61475,998.7,4468.939,1001.56647,4483.5Z"/><line class="cls-6" x1="488.56647" y1="4336.5" x2="600.04028" y2="4463.29102"/><path d="M619.56647,4485.5c-13.06552-7.041-31.08145-14.19092-45.15558-16.06689l23.067-9.05665,11.93223-21.71435C609.46875,4452.86035,614.25256,4471.64355,619.56647,4485.5Z"/><text class="cls-9" transform="translate(590.4101 4307.40186)">*head</text><text class="cls-3" transform="translate(1008.15283 4564.36768)">B</text><text class="cls-3" transform="translate(623.22171 4570.56934)">C</text><text class="cls-9" transform="translate(384.30603 4308.40186)">*prev</text><text class="cls-10" transform="translate(831.20984 4307.40186)">*cur</text><text class="cls-11" transform="translate(1389.08405 4570.36768)">A</text><text class="cls-9" transform="translate(1731.85742 4563.36768)">NULL<tspan class="cls-5" x="127.83203" y="0"> </tspan></text><text class="cls-9" transform="translate(337.85749 4573.36768)">NULL<tspan class="cls-5" x="127.83203" y="0"> </tspan></text><rect class="cls-6" x="1346.40456" y="4486" width="267.5" height="119"/><line class="cls-6" x1="1480.15456" y1="4486" x2="1480.15456" y2="4605"/><rect class="cls-6" x="969.40456" y="4486" width="267.5" height="119"/><line class="cls-6" x1="1103.15456" y1="4486" x2="1103.15456" y2="4605"/><rect class="cls-6" x="590.40456" y="4486" width="267.5" height="119"/><line class="cls-6" x1="724.15456" y1="4486" x2="724.15456" y2="4605"/><line class="cls-6" x1="1234.06647" y1="4545.5" x2="1313.49426" y2="4545.5"/><path d="M1343.06653,4545.5c-13.915,5.16309-31.18006,13.97266-41.88208,23.30371L1309.6134,4545.5l-8.42895-23.29883C1311.88647,4531.53223,1329.15149,4540.3418,1343.06653,4545.5Z"/><line class="cls-6" x1="507.63876" y1="4552.5" x2="587.0665" y2="4552.5"/><path d="M478.06647,4552.5c13.915,5.16309,31.18008,13.97266,41.88205,23.30371L511.5195,4552.5l8.429-23.29883C509.24655,4538.53223,491.98149,4547.3418,478.06647,4552.5Z"/><line class="cls-6" x1="1613.90454" y1="4545.5" x2="1693.33228" y2="4545.5"/><path d="M1722.90454,4545.5c-13.91492,5.16309-31.18,13.97266-41.882,23.30371l8.429-23.30371-8.429-23.29883C1691.72449,4531.53223,1708.98962,4540.3418,1722.90454,4545.5Z"/><line class="cls-6" x1="655.56647" y1="4336" x2="655.7789" y2="4453.42773"/><path d="M655.83237,4483c-5.18833-13.90576-14.029-31.15479-23.37943-41.83984l23.31894,8.38672,23.2836-8.4712C669.74384,4451.79492,660.96558,4469.07568,655.83237,4483Z"/><text class="cls-9" transform="translate(976.77191 4307.40186)">*next</text><line class="cls-6" x1="1033.56647" y1="4336" x2="1033.77887" y2="4453.42773"/><path d="M1033.8324,4483c-5.18836-13.90576-14.02906-31.15479-23.37946-41.83984l23.31891,8.38672,23.28363-8.4712C1047.74384,4451.79492,1038.96558,4469.07568,1033.8324,4483Z"/></g><g id="_4-3" data-name="4-3"><line class="cls-7" x1="488.56647" y1="3741.66235" x2="600.04028" y2="3868.45313"/><path class="cls-8" d="M619.56647,3890.66235c-13.06552-7.04126-31.08145-14.19067-45.15558-16.06689l23.067-9.05664,11.93223-21.71436C609.46875,3858.023,614.25256,3876.80591,619.56647,3890.66235Z"/><text class="cls-9" transform="translate(590.4101 3712.56421)">*head</text><text class="cls-3" transform="translate(1008.15283 3969.53003)">B</text><text class="cls-3" transform="translate(623.22171 3975.73193)">C</text><text class="cls-10" transform="translate(384.30603 3713.56421)">*prev</text><text class="cls-9" transform="translate(766.20984 3712.56421)">*cur</text><text class="cls-11" transform="translate(1389.08405 3975.53003)">A</text><text class="cls-9" transform="translate(1731.85742 3968.53003)">NULL<tspan class="cls-5" x="127.83203" y="0"> </tspan></text><text class="cls-9" transform="translate(337.85749 3978.53003)">NULL<tspan class="cls-5" x="127.83203" y="0"> </tspan></text><rect class="cls-6" x="1346.40456" y="3891.16239" width="267.5" height="119"/><line class="cls-6" x1="1480.15456" y1="3891.16239" x2="1480.15456" y2="4010.16239"/><rect class="cls-6" x="969.40456" y="3891.16239" width="267.5" height="119"/><line class="cls-6" x1="1103.15456" y1="3891.16239" x2="1103.15456" y2="4010.16239"/><rect class="cls-6" x="590.40456" y="3891.16239" width="267.5" height="119"/><line class="cls-6" x1="724.15456" y1="3891.16239" x2="724.15456" y2="4010.16239"/><line class="cls-6" x1="1234.06647" y1="3950.66235" x2="1313.49426" y2="3950.66235"/><path d="M1343.06653,3950.66235c-13.915,5.16333-31.18006,13.97266-41.88208,23.30371l8.42895-23.30371-8.42895-23.29882C1311.88647,3936.69458,1329.15149,3945.50391,1343.06653,3950.66235Z"/><line class="cls-6" x1="507.63876" y1="3957.66235" x2="587.0665" y2="3957.66235"/><path d="M478.06647,3957.66235c13.915,5.16333,31.18008,13.97266,41.88205,23.30371l-8.429-23.30371,8.429-23.29882C509.24655,3943.69458,491.98149,3952.50391,478.06647,3957.66235Z"/><line class="cls-6" x1="1613.90454" y1="3950.66235" x2="1693.33228" y2="3950.66235"/><path d="M1722.90454,3950.66235c-13.91492,5.16333-31.18,13.97266-41.882,23.30371l8.429-23.30371-8.429-23.29882C1691.72449,3936.69458,1708.98962,3945.50391,1722.90454,3950.66235Z"/><line class="cls-6" x1="655.56647" y1="3741.16235" x2="655.7789" y2="3858.59009"/><path d="M655.83237,3888.16235c-5.18833-13.90551-14.029-31.15478-23.37943-41.83984l23.31894,8.387,23.2836-8.47119C669.74384,3856.957,660.96558,3874.238,655.83237,3888.16235Z"/><text class="cls-9" transform="translate(976.77191 3712.56421)">*next</text><line class="cls-6" x1="1033.56647" y1="3741.16235" x2="1033.77887" y2="3858.59009"/><path d="M1033.8324,3888.16235c-5.18836-13.90551-14.02906-31.15478-23.37946-41.83984l23.31891,8.387,23.28363-8.47119C1047.74384,3856.957,1038.96558,3874.238,1033.8324,3888.16235Z"/><line x1="810.56647" y1="3741.66239" x2="703.56647" y2="3888.66239"/><line class="cls-6" x1="810.56647" y1="3741.66235" x2="720.96973" y2="3864.75317"/><path d="M703.56647,3888.66235c4.01455-14.28881,7.05258-33.43188,5.80652-47.57568l13.88055,20.529,23.79761,6.89649C733.20892,3871.67334,715.926,3880.44775,703.56647,3888.66235Z"/></g><g id="_4-2" data-name="4-2"><text class="cls-9" transform="translate(596.18573 3117.72656)">*head</text><text class="cls-3" transform="translate(1013.92847 3374.69238)">B</text><text class="cls-3" transform="translate(628.99734 3380.89429)">C</text><text class="cls-9" transform="translate(332.08167 3127.72656)">*prev</text><text class="cls-9" transform="translate(771.98547 3117.72656)">*cur</text><text class="cls-11" transform="translate(1394.85968 3380.69238)">A</text><text class="cls-9" transform="translate(1737.63306 3373.69238)">NULL<tspan class="cls-5" x="127.83203" y="0"> </tspan></text><text class="cls-9" transform="translate(343.63312 3383.69238)">NULL<tspan class="cls-5" x="127.83203" y="0"> </tspan></text><rect class="cls-6" x="1352.18019" y="3296.32478" width="267.5" height="119"/><line class="cls-6" x1="1485.93019" y1="3296.32478" x2="1485.93019" y2="3415.32478"/><rect class="cls-6" x="975.18019" y="3296.32478" width="267.5" height="119"/><line class="cls-6" x1="1108.93019" y1="3296.32478" x2="1108.93019" y2="3415.32478"/><rect class="cls-6" x="596.18019" y="3296.32478" width="267.5" height="119"/><line class="cls-6" x1="729.93019" y1="3296.32478" x2="729.93019" y2="3415.32478"/><line class="cls-6" x1="1239.8421" y1="3355.82471" x2="1319.2699" y2="3355.82471"/><path d="M1348.84216,3355.82471c-13.915,5.16333-31.18,13.97265-41.88208,23.30371l8.429-23.30371-8.429-23.29883C1317.66211,3341.85693,1334.92712,3350.6665,1348.84216,3355.82471Z"/><line class="cls-7" x1="513.4144" y1="3362.82471" x2="592.84213" y2="3362.82471"/><path class="cls-8" d="M483.8421,3362.82471c13.915,5.16333,31.18009,13.97265,41.882,23.30371l-8.429-23.30371,8.429-23.29883C515.02219,3348.85693,497.75713,3357.6665,483.8421,3362.82471Z"/><line class="cls-6" x1="1619.68018" y1="3355.82471" x2="1699.10791" y2="3355.82471"/><path d="M1728.68018,3355.82471c-13.91492,5.16333-31.18006,13.97265-41.882,23.30371l8.42895-23.30371-8.42895-23.29883C1697.50012,3341.85693,1714.76526,3350.6665,1728.68018,3355.82471Z"/><line class="cls-6" x1="661.3421" y1="3146.32471" x2="661.55453" y2="3263.75244"/><path d="M661.608,3293.32471c-5.18832-13.90552-14.029-31.15479-23.37942-41.83985l23.31894,8.387,23.2836-8.4712C675.51947,3262.11938,666.74121,3279.40039,661.608,3293.32471Z"/><text class="cls-9" transform="translate(982.54755 3117.72656)">*next</text><line class="cls-6" x1="1039.3421" y1="3146.32471" x2="1039.5545" y2="3263.75244"/><path d="M1039.608,3293.32471c-5.18835-13.90552-14.02905-31.15479-23.37945-41.83985l23.31891,8.387,23.28363-8.4712C1053.51947,3262.11938,1044.74121,3279.40039,1039.608,3293.32471Z"/><line class="cls-6" x1="399.3421" y1="3156.32471" x2="399.55452" y2="3273.75244"/><path d="M399.608,3303.32471c-5.18834-13.90552-14.029-31.15479-23.37944-41.83985l23.31892,8.387,23.28363-8.4712C413.51949,3272.11938,404.74121,3289.40039,399.608,3303.32471Z"/><line x1="816.3421" y1="3146.82478" x2="709.3421" y2="3293.82478"/><line class="cls-6" x1="816.3421" y1="3146.82471" x2="726.74536" y2="3269.91553"/><path d="M709.3421,3293.82471c4.01456-14.28882,7.05258-33.43189,5.80652-47.57569l13.88055,20.52906,23.79761,6.89648C738.98456,3276.83594,721.7016,3285.61011,709.3421,3293.82471Z"/></g><g id="_4-1" data-name="4-1"><text class="cls-9" transform="translate(588.68573 2438.88916)">*head</text><text class="cls-3" transform="translate(1006.42847 2695.85474)">B</text><text class="cls-3" transform="translate(621.49734 2702.05664)">C</text><text class="cls-9" transform="translate(339.58167 2448.88916)">*prev</text><text class="cls-9" transform="translate(764.48547 2438.88916)">*cur</text><text class="cls-11" transform="translate(1387.35968 2701.85474)">A</text><text class="cls-9" transform="translate(1730.13306 2694.85474)">NULL<tspan class="cls-5" x="127.83203" y="0"> </tspan></text><text class="cls-9" transform="translate(351.13312 2704.85474)">NULL<tspan class="cls-5" x="127.83203" y="0"> </tspan></text><rect class="cls-6" x="1344.68019" y="2617.48717" width="267.5" height="119"/><line class="cls-6" x1="1478.43019" y1="2617.48717" x2="1478.43019" y2="2736.48717"/><rect class="cls-6" x="967.68019" y="2617.48717" width="267.5" height="119"/><line class="cls-6" x1="1101.43019" y1="2617.48717" x2="1101.43019" y2="2736.48717"/><rect class="cls-6" x="588.68019" y="2617.48717" width="267.5" height="119"/><line class="cls-6" x1="722.43019" y1="2617.48717" x2="722.43019" y2="2736.48717"/><line class="cls-6" x1="1232.3421" y1="2676.98706" x2="1311.7699" y2="2676.98706"/><path d="M1341.34216,2676.98706c-13.915,5.16333-31.18,13.97266-41.88208,23.30371l8.429-23.30371-8.429-23.29883C1310.16211,2663.01929,1327.42712,2671.82886,1341.34216,2676.98706Z"/><line class="cls-6" x1="854.3421" y1="2676.98706" x2="933.76984" y2="2676.98706"/><path d="M963.34216,2676.98706c-13.915,5.16333-31.18011,13.97266-41.88208,23.30371l8.429-23.30371-8.429-23.29883C932.16205,2663.01929,949.42712,2671.82886,963.34216,2676.98706Z"/><line class="cls-6" x1="1612.18018" y1="2676.98706" x2="1691.60791" y2="2676.98706"/><path d="M1721.18018,2676.98706c-13.91492,5.16333-31.18006,13.97266-41.882,23.30371l8.42895-23.30371-8.42895-23.29883C1690.00012,2663.01929,1707.26526,2671.82886,1721.18018,2676.98706Z"/><line class="cls-6" x1="653.8421" y1="2467.48706" x2="654.05453" y2="2584.91504"/><path d="M654.108,2614.48706c-5.18832-13.90552-14.029-31.15454-23.37942-41.83984l23.31894,8.387,23.2836-8.47119C668.01947,2583.282,659.24121,2600.56274,654.108,2614.48706Z"/><text class="cls-10" transform="translate(975.04755 2438.88916)">*next</text><line class="cls-7" x1="1031.8421" y1="2467.48706" x2="1032.0545" y2="2584.91504"/><path class="cls-8" d="M1032.108,2614.48706c-5.18835-13.90552-14.02905-31.15454-23.37945-41.83984l23.31891,8.387,23.28363-8.47119C1046.01947,2583.282,1037.24121,2600.56274,1032.108,2614.48706Z"/><line class="cls-6" x1="406.8421" y1="2477.48706" x2="407.05452" y2="2594.91504"/><path d="M407.108,2624.48706c-5.18834-13.90552-14.029-31.15454-23.37944-41.83984l23.31892,8.387,23.28363-8.47119C421.01949,2593.282,412.24121,2610.56274,407.108,2624.48706Z"/><line x1="808.8421" y1="2467.98717" x2="701.8421" y2="2614.98717"/><line class="cls-6" x1="808.8421" y1="2467.98706" x2="719.24536" y2="2591.07813"/><path d="M701.8421,2614.98706c4.01456-14.28857,7.05258-33.43188,5.80652-47.57568l13.88055,20.52905,23.79761,6.89648C731.48456,2597.99829,714.2016,2606.77271,701.8421,2614.98706Z"/></g><g id="_3-1" data-name="3-1"><text class="cls-12" transform="translate(1493.08154 1632.08248) scale(0.86518 1)">NULL<tspan class="cls-13" x="147.75082" y="0"> </tspan></text><line class="cls-6" x1="1331.15869" y1="1610.5" x2="1410.58643" y2="1610.5"/><path d="M1440.15869,1610.5c-13.915,5.16321-31.18,13.97266-41.88208,23.30371l8.42908-23.30371-8.42908-23.299C1408.97864,1596.5321,1426.24365,1605.34167,1440.15869,1610.5Z"/><text class="cls-9" transform="translate(1147.54749 1623.8385)">*head</text></g><g id="_2-1" data-name="2-1"><line class="cls-14" x1="1228.78723" y1="1054.5" x2="1228.78723" y2="1182.42773"/><path class="cls-15" d="M1228.78723,1212c-5.16321-13.915-13.97265-31.18-23.30371-41.88208l23.30371,8.42908,23.299-8.42908C1242.75513,1180.82,1233.94556,1198.085,1228.78723,1212Z"/><text class="cls-16" transform="translate(1532.60986 1177.3678)">......</text><text class="cls-3" transform="translate(1210.08636 1290.3678)">B</text><text class="cls-3" transform="translate(825.15524 1296.56958)">C</text><text class="cls-9" transform="translate(792.25714 1038.3678)">*head</text><text class="cls-9" transform="translate(1171.14337 1038.3678)">*cur</text><text class="cls-11" transform="translate(1591.01758 1296.3678)">A</text><text class="cls-9" transform="translate(1933.79102 1289.3678)">NULL<tspan class="cls-5" x="127.83203" y="0"> </tspan></text><rect class="cls-6" x="1548.33809" y="1212" width="267.5" height="119"/><line class="cls-6" x1="1682.08809" y1="1212" x2="1682.08809" y2="1331"/><rect class="cls-6" x="1171.33809" y="1212" width="267.5" height="119"/><line class="cls-6" x1="1305.08809" y1="1212" x2="1305.08809" y2="1331"/><rect class="cls-6" x="792.33809" y="1212" width="267.5" height="119"/><line class="cls-6" x1="926.08809" y1="1212" x2="926.08809" y2="1331"/><line class="cls-6" x1="1436.00005" y1="1271.5" x2="1515.42778" y2="1271.5"/><path d="M1545.00005,1271.5c-13.915,5.16318-31.18006,13.97266-41.88208,23.30371L1511.547,1271.5l-8.42907-23.29892C1513.82,1257.5321,1531.085,1266.34161,1545.00005,1271.5Z"/><line class="cls-6" x1="1058.00005" y1="1271.5" x2="1137.42778" y2="1271.5"/><path d="M1167.00005,1271.5c-13.915,5.16318-31.18006,13.97266-41.88208,23.30371L1133.547,1271.5l-8.42907-23.29892C1135.82,1257.5321,1153.085,1266.34161,1167.00005,1271.5Z"/><line class="cls-6" x1="1815.83813" y1="1271.5" x2="1895.26587" y2="1271.5"/><path d="M1924.83813,1271.5c-13.915,5.16318-31.18005,13.97266-41.88208,23.30371l8.42908-23.30371-8.42908-23.29892C1893.65808,1257.5321,1910.9231,1266.34161,1924.83813,1271.5Z"/><line class="cls-6" x1="857.50005" y1="1062" x2="857.71245" y2="1179.42776"/><path d="M857.76591,1209c-5.18835-13.90567-14.029-31.15475-23.37939-41.83984l23.31885,8.38687,23.28369-8.47116C871.67741,1177.79471,862.89909,1195.07568,857.76591,1209Z"/><line x1="1161" y1="1028.5" x2="937.7234" y2="1028"/><line class="cls-6" x1="1161" y1="1028.5" x2="967.29559" y2="1028.06628"/><path d="M937.72339,1028c13.92657-5.132,31.2113-13.90277,41.93414-23.20984l-8.4812,23.28479,8.37683,23.31775C968.87213,1042.03772,951.62683,1033.18958,937.72339,1028Z"/><line class="cls-17" x1="1014.5" y1="989.5" x2="1104.5" y2="1064.5"/><line class="cls-14" x1="1104.5" y1="989.5" x2="1014.5" y2="1064.5"/></g><g id="_1-1" data-name="1-1"><polyline class="cls-18" points="1031.838 695.5 1160.338 695.5 1160.338 591.17 975.072 591.17 975.072 493.5 1076.266 493.5"/><path class="cls-15" d="M1105.83807,493.5c-13.915,5.16318-31.18,13.97266-41.882,23.30371l8.429-23.30371-8.429-23.29892C1074.658,479.5321,1091.9231,488.34161,1105.83807,493.5Z"/><text class="cls-11" transform="translate(1529.01758 518.36777)">A</text><text class="cls-3" transform="translate(1148.08636 518.36777)">B</text><text class="cls-3" transform="translate(803.15524 719.56958)">C</text><text class="cls-9" transform="translate(1871.79102 511.36777)">NULL<tspan class="cls-5" x="127.83203" y="0"> </tspan></text><text class="cls-9" transform="translate(1569.79834 635.36777)">char<tspan x="-0.02441" y="60">data</tspan></text><text class="cls-9" transform="translate(1106.25714 276.36777)">*head</text><text class="cls-9" transform="translate(1715.74951 635.36777)">struct node<tspan x="59.75342" y="60" xml:space="preserve"> *next</tspan></text><rect class="cls-6" x="1486.33809" y="434" width="267.5" height="119"/><line class="cls-6" x1="1620.08809" y1="434" x2="1620.08809" y2="553"/><rect class="cls-6" x="1109.33809" y="434" width="267.5" height="119"/><line class="cls-6" x1="1243.08809" y1="434" x2="1243.08809" y2="553"/><rect class="cls-6" x="764.33809" y="636.39909" width="267.5" height="119"/><line class="cls-6" x1="898.08809" y1="636.39909" x2="898.08809" y2="755.39909"/><line class="cls-6" x1="1376.83813" y1="493.5" x2="1456.26587" y2="493.5"/><path d="M1485.83813,493.5c-13.915,5.16318-31.18005,13.97266-41.88208,23.30371L1452.38513,493.5l-8.42908-23.29892C1454.65808,479.5321,1471.9231,488.34161,1485.83813,493.5Z"/><line class="cls-6" x1="1753.83813" y1="493.5" x2="1833.26587" y2="493.5"/><path d="M1862.83813,493.5c-13.915,5.16318-31.18005,13.97266-41.88208,23.30371L1829.38513,493.5l-8.42908-23.29892C1831.65808,479.5321,1848.9231,488.34161,1862.83813,493.5Z"/><line class="cls-6" x1="1171.33813" y1="287" x2="1171.55054" y2="404.42776"/><path d="M1171.604,434c-5.18835-13.90567-14.02905-31.15475-23.37939-41.83984l23.31885,8.38687,23.28369-8.47116C1185.5155,402.79471,1176.73718,420.07568,1171.604,434Z"/><line class="cls-17" x1="1114.5" y1="321.5" x2="1228.28743" y2="381.42553"/><line class="cls-17" x1="1228.5" y1="321.5" x2="1114.5" y2="381.5"/><polyline class="cls-18" points="1080.338 260.5 828.008 260.5 828.008 605.796"/><path class="cls-15" d="M828.0083,635.36816c-5.16321-13.915-13.97266-31.18-23.30371-41.88208l23.30371,8.429,23.29889-8.429C841.9762,604.18811,833.16669,621.45312,828.0083,635.36816Z"/></g><g id="flow_chart" data-name="flow chart"><rect class="cls-19" x="82.10675" y="101.99549" width="488.97296" height="223.40363" rx="70.49993"/><text class="cls-3" transform="translate(110.59456 190.36778)">Read one line<tspan x="44.86084" y="84">from txt file</tspan></text><rect class="cls-19" x="119.59323" y="471.5" width="414" height="141" rx="70.49993"/><text class="cls-3" transform="translate(172.95557 560.67053)">print_list()</text><rect class="cls-19" x="119.59323" y="1057.5" width="414" height="141" rx="70.49993"/><text class="cls-3" transform="translate(172.95557 1146.67053)">print_list()</text><rect class="cls-19" x="119.59323" y="1344.5" width="414" height="141" rx="70.49993"/><text class="cls-3" transform="translate(227.4207 1433.67053)">clear()</text><rect class="cls-19" x="76.59323" y="764.5" width="500" height="141" rx="70.49993"/><text class="cls-3" transform="translate(124.33472 853.67053)">reverse_list()</text><rect class="cls-19" x="200.09323" y="1631.49988" width="253" height="141" rx="70.49993"/><text class="cls-3" transform="translate(264.31808 1720.67065)">End</text><line x1="326.59588" y1="325.39913" x2="326.59588" y2="471.5"/><line class="cls-6" x1="326.59587" y1="325.39914" x2="326.59587" y2="438.97049"/><path d="M326.59587,471.5c-5.67949-15.30652-15.3699-34.29807-25.63408-46.07028l25.63408,9.27194,25.62882-9.27194C341.96056,437.20193,332.2701,456.19348,326.59587,471.5Z"/><line x1="326.59588" y1="615.39913" x2="326.59588" y2="761.5"/><line class="cls-6" x1="326.59587" y1="615.39911" x2="326.59587" y2="728.97046"/><path d="M326.59587,761.5c-5.67949-15.30652-15.3699-34.2981-25.63408-46.07025l25.63408,9.27191,25.62882-9.27191C341.96056,727.2019,332.2701,746.19348,326.59587,761.5Z"/><line x1="326.59588" y1="908.39913" x2="326.59588" y2="1054.5"/><line class="cls-6" x1="326.59587" y1="908.39911" x2="326.59587" y2="1021.97046"/><path d="M326.59587,1054.5c-5.67949-15.30652-15.3699-34.2981-25.63408-46.07025l25.63408,9.27191,25.62882-9.27191C341.96056,1020.2019,332.2701,1039.19348,326.59587,1054.5Z"/><line x1="326.59588" y1="1198.39913" x2="326.59588" y2="1344.5"/><line class="cls-6" x1="326.59587" y1="1198.39917" x2="326.59587" y2="1311.97046"/><path d="M326.59587,1344.5c-5.67949-15.30652-15.3699-34.2981-25.63408-46.07031l25.63408,9.272,25.62882-9.272C341.96056,1310.2019,332.2701,1329.19348,326.59587,1344.5Z"/><line x1="326.59588" y1="1485.39913" x2="326.59588" y2="1631.5"/><line class="cls-6" x1="326.59587" y1="1485.39917" x2="326.59587" y2="1598.97046"/><path d="M326.59587,1631.5c-5.67949-15.30652-15.3699-34.2981-25.63408-46.07031l25.63408,9.272,25.62882-9.272C341.96056,1597.2019,332.2701,1616.19348,326.59587,1631.5Z"/><polyline class="cls-6" points="453.093 1702 666.171 1702 666.171 213.697 609.123 213.697"/><path d="M576.59323,213.69731c15.30652-5.6795,34.29807-15.3699,46.07028-25.63409l-9.27194,25.63409,9.27194,25.6288C610.8913,229.062,591.89975,219.37152,576.59323,213.69731Z"/></g></g></svg>