<svg xmlns="http://www.w3.org/2000/svg" viewBox="0 0 1836.74468 1241.7234"><defs><style>.cls-1{fill:#fff;}.cls-1,.cls-2,.cls-3,.cls-5,.cls-6,.cls-8,.cls-9{stroke:#231815;stroke-miterlimit:10;}.cls-2{fill:#fdf4de;}.cls-2,.cls-9{stroke-width:5px;}.cls-3{fill:#b7e1ee;}.cls-3,.cls-5{stroke-width:2px;}.cls-4{font-size:37px;font-family:ArialMT, Arial;}.cls-10,.cls-4{fill:#231815;}.cls-5{fill:#b4dce8;}.cls-6,.cls-8,.cls-9{fill:none;}.cls-6{stroke-width:3px;}.cls-7{letter-spacing:-0.07422em;}.cls-8{stroke-width:7px;}</style></defs><g id="圖層_2" data-name="圖層 2"><rect class="cls-1" x="0.5" y="0.5" width="1835.74468" height="1240.7234"/></g><g id="圖層_1" data-name="圖層 1"><rect class="cls-2" x="57.64003" y="1055.8617" width="1440.32783" height="85.78723"/><circle class="cls-3" cx="883.65209" cy="137.77485" r="26.42553"/><text class="cls-4" transform="translate(873.36335 151.51892)">0</text><rect class="cls-5" x="798.24784" y="165.59927" width="170.80851" height="58.97872" rx="24.51064"/><text class="cls-4" transform="translate(808.31752 209.38326)">87</text><text class="cls-4" transform="translate(874.91755 209.3835)">0</text><text class="cls-4" transform="translate(926.98036 209.38349)">7</text><line class="cls-6" x1="855.18401" y1="165.59927" x2="855.18401" y2="224.57799"/><line class="cls-6" x1="912.12018" y1="165.59927" x2="912.12018" y2="224.57799"/><circle class="cls-3" cx="248.8454" cy="644.47305" r="26.42553"/><text class="cls-4" transform="translate(238.55665 658.21707)">3</text><rect class="cls-5" x="163.44115" y="672.29746" width="170.80851" height="58.97872" rx="24.51064"/><text class="cls-4" transform="translate(173.51078 716.08136)">58</text><text class="cls-4" transform="translate(240.11085 716.0816)">0</text><text class="cls-4" transform="translate(292.17365 716.0816)">1</text><line class="cls-6" x1="220.37732" y1="672.29746" x2="220.37732" y2="731.27619"/><line class="cls-6" x1="277.31349" y1="672.29746" x2="277.31349" y2="731.27619"/><circle class="cls-3" cx="672.04986" cy="644.47305" r="26.42553"/><text class="cls-4" transform="translate(661.76111 658.21707)">4</text><rect class="cls-5" x="586.64561" y="672.29746" width="170.80851" height="58.97872" rx="24.51064"/><text class="cls-4" transform="translate(596.71526 716.08142)">36</text><text class="cls-4" transform="translate(663.31531 716.08167)">2</text><text class="cls-4" transform="translate(715.37811 716.08167)">3</text><line class="cls-6" x1="643.58178" y1="672.29746" x2="643.58178" y2="731.27619"/><line class="cls-6" x1="700.51795" y1="672.29746" x2="700.51795" y2="731.27619"/><circle class="cls-3" cx="1095.25432" cy="644.47305" r="26.42553"/><text class="cls-4" transform="translate(1084.96558 658.21704)">5</text><rect class="cls-5" x="1009.85007" y="672.29746" width="170.80851" height="58.97872" rx="24.51064"/><text class="cls-4" transform="translate(1019.91975 716.08142)">87</text><text class="cls-4" transform="translate(1086.51978 716.08167)">4</text><text class="cls-4" transform="translate(1138.58259 716.08167)">5</text><line class="cls-6" x1="1066.78624" y1="672.29746" x2="1066.78624" y2="731.27619"/><line class="cls-6" x1="1123.72241" y1="672.29746" x2="1123.72241" y2="731.27619"/><circle class="cls-3" cx="1518.45879" cy="644.47305" r="26.42553"/><text class="cls-4" transform="translate(1508.17002 658.21701)"><tspan xml:space="preserve">6  </tspan></text><rect class="cls-5" x="1433.05453" y="672.29746" width="170.80851" height="58.97872" rx="24.51064"/><text class="cls-4" transform="translate(1443.12418 716.08136)">24</text><text class="cls-4" transform="translate(1509.72422 716.0816)">6</text><text class="cls-4" transform="translate(1561.78703 716.0816)">7</text><line class="cls-6" x1="1489.9907" y1="672.29746" x2="1489.9907" y2="731.27619"/><line class="cls-6" x1="1546.92687" y1="672.29746" x2="1546.92687" y2="731.27619"/><circle class="cls-3" cx="143.04429" cy="897.82214" r="26.42553"/><text class="cls-4" transform="translate(132.75553 911.56622)">7</text><rect class="cls-5" x="57.64003" y="925.64656" width="170.80851" height="58.97872" rx="24.51064"/><text class="cls-4" transform="translate(67.70969 969.43054)">58</text><text class="cls-4" transform="translate(134.30973 969.43079)">0</text><text class="cls-4" transform="translate(186.37254 969.43079)">0</text><line class="cls-6" x1="114.5762" y1="925.64656" x2="114.5762" y2="984.62528"/><line class="cls-6" x1="171.51237" y1="925.64656" x2="171.51237" y2="984.62528"/><text class="cls-4" transform="translate(398.50767 969.43079)">1</text><circle class="cls-3" cx="354.64652" cy="897.82214" r="26.42553"/><text class="cls-4" transform="translate(344.35774 911.56622)">8</text><rect class="cls-5" x="269.24226" y="925.64656" width="170.80851" height="58.97872" rx="24.51064"/><text class="cls-4" transform="translate(345.91193 969.43079)">1</text><text class="cls-4" transform="translate(397.99705 969.43079)">1</text><text class="cls-4" transform="translate(287.69917 969.43079)">1</text><line class="cls-6" x1="326.17843" y1="925.64656" x2="326.17843" y2="984.62528"/><line class="cls-6" x1="383.1146" y1="925.64656" x2="383.1146" y2="984.62528"/><circle class="cls-3" cx="566.24875" cy="897.82214" r="26.42553"/><text class="cls-4" transform="translate(555.95998 911.56622)">9</text><rect class="cls-5" x="480.84449" y="925.64656" width="170.80851" height="58.97872" rx="24.51064"/><text class="cls-4" transform="translate(490.91415 969.43054)">36</text><text class="cls-4" transform="translate(557.51418 969.43079)">2</text><text class="cls-4" transform="translate(609.57698 969.43079)">2</text><line class="cls-6" x1="537.78066" y1="925.64656" x2="537.78066" y2="984.62528"/><line class="cls-6" x1="594.71683" y1="925.64656" x2="594.71683" y2="984.62528"/><circle class="cls-3" cx="777.85098" cy="897.82214" r="26.42553"/><text class="cls-4" transform="translate(753.91558 911.56622)">10</text><rect class="cls-5" x="692.44672" y="925.64656" width="170.80851" height="58.97872" rx="24.51064"/><text class="cls-4" transform="translate(702.51638 969.43054)">27</text><text class="cls-4" transform="translate(769.11641 969.43079)">3</text><text class="cls-4" transform="translate(821.17921 969.43079)">3</text><line class="cls-6" x1="749.38289" y1="925.64656" x2="749.38289" y2="984.62528"/><line class="cls-6" x1="806.31906" y1="925.64656" x2="806.31906" y2="984.62528"/><circle class="cls-3" cx="989.45321" cy="897.82214" r="26.42553"/><text class="cls-4" transform="translate(969.51365 911.56622)"><tspan class="cls-7">1</tspan><tspan x="17.83154" y="0">1</tspan></text><rect class="cls-5" x="904.04895" y="925.64656" width="170.80851" height="58.97872" rx="24.51064"/><text class="cls-4" transform="translate(914.11862 969.43054)">50</text><text class="cls-4" transform="translate(980.71861 969.43079)">4</text><text class="cls-4" transform="translate(1032.78141 969.43079)">4</text><line class="cls-6" x1="960.98512" y1="925.64656" x2="960.98512" y2="984.62528"/><line class="cls-6" x1="1017.92129" y1="925.64656" x2="1017.92129" y2="984.62528"/><circle class="cls-3" cx="1201.05544" cy="897.82214" r="26.42553"/><text class="cls-4" transform="translate(1180.65855 911.56622)">12 </text><rect class="cls-5" x="1115.65118" y="925.64656" width="170.80851" height="58.97872" rx="24.51064"/><text class="cls-4" transform="translate(1125.72083 969.43054)">87</text><text class="cls-4" transform="translate(1192.32084 969.43079)">5</text><text class="cls-4" transform="translate(1245.44987 969.43079)">5</text><line class="cls-6" x1="1172.58735" y1="925.64656" x2="1172.58735" y2="984.62528"/><line class="cls-6" x1="1229.52353" y1="925.64656" x2="1229.52353" y2="984.62528"/><circle class="cls-3" cx="1409.29972" cy="897.82214" r="26.42553"/><text class="cls-4" transform="translate(1388.72227 911.56622)">13</text><rect class="cls-5" x="1327.25342" y="925.64656" width="170.80851" height="58.97872" rx="24.51064"/><text class="cls-4" transform="translate(1337.3231 969.43054)">24</text><text class="cls-4" transform="translate(1403.92307 969.43079)">6</text><text class="cls-4" transform="translate(1455.98588 969.43079)">6</text><line class="cls-6" x1="1384.18959" y1="925.64656" x2="1384.18959" y2="984.62528"/><line class="cls-6" x1="1441.12576" y1="925.64656" x2="1441.12576" y2="984.62528"/><circle class="cls-3" cx="1624.2599" cy="897.82214" r="26.42553"/><text class="cls-4" transform="translate(1600.3245 911.56622)">14</text><rect class="cls-5" x="1538.85565" y="925.64656" width="170.80851" height="58.97872" rx="24.51064"/><text class="cls-4" transform="translate(1558.07169 969.43054)">0</text><text class="cls-4" transform="translate(1615.52531 969.43079)">7</text><text class="cls-4" transform="translate(1667.58811 969.43079)">7</text><line class="cls-6" x1="1595.79182" y1="925.64656" x2="1595.79182" y2="984.62528"/><line class="cls-6" x1="1652.72799" y1="925.64656" x2="1652.72799" y2="984.62528"/><circle class="cls-3" cx="460.44763" cy="391.12395" r="26.42553"/><text class="cls-4" transform="translate(450.15888 404.86801)">1</text><rect class="cls-5" x="375.04338" y="418.94837" width="170.80851" height="58.97872" rx="24.51064"/><text class="cls-4" transform="translate(385.11305 462.73233)">58</text><text class="cls-4" transform="translate(451.71308 462.73257)">0</text><text class="cls-4" transform="translate(503.77587 462.73257)">3</text><line class="cls-6" x1="431.97955" y1="418.94837" x2="431.97955" y2="477.92709"/><line class="cls-6" x1="488.91572" y1="418.94837" x2="488.91572" y2="477.92709"/><circle class="cls-3" cx="1306.85656" cy="391.12395" r="26.42553"/><text class="cls-4" transform="translate(1296.56779 404.86801)">2</text><rect class="cls-5" x="1221.4523" y="418.94837" width="170.80851" height="58.97872" rx="24.51064"/><text class="cls-4" transform="translate(1231.52195 462.73233)">87</text><text class="cls-4" transform="translate(1298.12199 462.73257)">4</text><text class="cls-4" transform="translate(1350.18479 462.73257)">7</text><line class="cls-6" x1="1278.38847" y1="418.94837" x2="1278.38847" y2="477.92709"/><line class="cls-6" x1="1335.32464" y1="418.94837" x2="1335.32464" y2="477.92709"/><text class="cls-4" transform="translate(1584.50718 404.86807)">Legend</text><text class="cls-4" transform="translate(112.18668 1196.51324)">a[0]</text><text class="cls-4" transform="translate(323.22953 1196.51324)">a[1]</text><text class="cls-4" transform="translate(534.27181 1196.51324)">a[2]</text><text class="cls-4" transform="translate(745.31457 1196.51324)">a[3]</text><text class="cls-4" transform="translate(956.357 1196.51331)">a[4]</text><text class="cls-4" transform="translate(1167.39967 1196.51343)">a[5]</text><text class="cls-4" transform="translate(1378.44193 1196.51349)">a[6]</text><text class="cls-4" transform="translate(122.46696 1110.25012)">58</text><text class="cls-4" transform="translate(334.70728 1110.25012)">1</text><text class="cls-4" transform="translate(541.70266 1110.25012)">36</text><text class="cls-4" transform="translate(758.98685 1110.25012)">27</text><text class="cls-4" transform="translate(976.27094 1110.25018)">50</text><text class="cls-4" transform="translate(1193.55528 1110.25031)">87</text><text class="cls-4" transform="translate(1388.72221 1110.25037)">24</text><circle class="cls-3" cx="1497.96786" cy="169.37143" r="48.70179"/><rect class="cls-5" x="1340.56933" y="220.65133" width="314.79705" height="69.48181" rx="24.51064"/><line class="cls-6" x1="1445.50168" y1="220.65133" x2="1445.50168" y2="290.13291"/><line class="cls-6" x1="1550.43404" y1="220.65133" x2="1550.43404" y2="290.577"/><text class="cls-4" transform="translate(1455.11295 181.32399)">index</text><text class="cls-4" transform="translate(1356.98209 266.64245)">data</text><text class="cls-4" transform="translate(1457.55528 266.23621)">lower</text><text class="cls-4" transform="translate(1555.70438 266.23592)">upper</text><line class="cls-8" x1="976.84043" y1="223.84056" x2="1233.03855" y2="398.67021"/><line class="cls-8" x1="790.30402" y1="223.84056" x2="534.10589" y2="398.67021"/><line class="cls-8" x1="1369.05442" y1="507.43617" x2="1466.86138" y2="611.60638"/><line class="cls-8" x1="537.74213" y1="507.43617" x2="635.54909" y2="611.60638"/><line class="cls-8" x1="1230.01909" y1="507.43617" x2="1132.21213" y2="611.60638"/><line class="cls-8" x1="394.77781" y1="507.43617" x2="296.97086" y2="611.60638"/><line class="cls-8" x1="1546.92687" y1="754.07447" x2="1624.2599" y2="840.62766"/><line class="cls-8" x1="1126.50207" y1="754.07447" x2="1203.8351" y2="840.62766"/><line class="cls-8" x1="698.4754" y1="754.07447" x2="775.80843" y2="840.62766"/><line class="cls-8" x1="275.27094" y1="754.07447" x2="352.60397" y2="840.62766"/><line class="cls-8" x1="220.37732" y1="754.07447" x2="143.04429" y2="840.62766"/><line class="cls-8" x1="643.58178" y1="754.07447" x2="566.24875" y2="840.62766"/><line class="cls-8" x1="1066.78624" y1="760.25728" x2="989.45321" y2="846.81047"/><line class="cls-8" x1="1489.9907" y1="760.25728" x2="1412.65767" y2="846.81047"/><rect class="cls-9" x="1302.61899" y="81.25999" width="402.85341" height="256.57895"/><line class="cls-9" x1="236.3539" y1="1055.8617" x2="236.3539" y2="1141.64894"/><line class="cls-9" x1="1322.77465" y1="1055.8617" x2="1322.77465" y2="1141.64894"/><line class="cls-9" x1="1105.4905" y1="1055.8617" x2="1105.4905" y2="1141.64894"/><line class="cls-9" x1="888.20635" y1="1055.8617" x2="888.20635" y2="1141.64894"/><line class="cls-9" x1="670.9222" y1="1055.8617" x2="670.9222" y2="1141.64894"/><line class="cls-9" x1="453.63805" y1="1055.8617" x2="453.63805" y2="1141.64894"/><line class="cls-9" x1="143.04429" y1="1044.37231" x2="111.85734" y2="1013.18536"/><path class="cls-10" d="M96.42109,997.74915c9.63593,4.42034,22.80554,8.691,32.92377,9.38348l-16.02744,7.51282-7.51044,16.02508C105.11454,1020.55231,100.84385,1007.38263,96.42109,997.74915Z" transform="translate(0.5 0.5)"/><line class="cls-9" x1="354.64652" y1="1044.37231" x2="323.45957" y2="1013.18536"/><path class="cls-10" d="M308.02331,997.74915c9.636,4.42034,22.80556,8.691,32.92379,9.38348l-16.02746,7.51282-7.51042,16.02508C316.71677,1020.55231,312.44608,1007.38263,308.02331,997.74915Z" transform="translate(0.5 0.5)"/><line class="cls-9" x1="566.24874" y1="1044.37231" x2="535.0618" y2="1013.18536"/><path class="cls-10" d="M519.62553,997.74915c9.63595,4.42034,22.80557,8.691,32.92379,9.38348l-16.02745,7.51282-7.51043,16.02508C528.319,1020.55231,524.04831,1007.38263,519.62553,997.74915Z" transform="translate(0.5 0.5)"/><line class="cls-9" x1="777.85096" y1="1044.37231" x2="746.66404" y2="1013.18536"/><path class="cls-10" d="M731.22776,997.74915c9.636,4.42034,22.80557,8.691,32.9238,9.38348l-16.02747,7.51282-7.5104,16.02508C739.92124,1020.55231,735.65055,1007.38263,731.22776,997.74915Z" transform="translate(0.5 0.5)"/><line class="cls-9" x1="989.45322" y1="1044.37231" x2="958.26627" y2="1013.18536"/><path class="cls-10" d="M942.83,997.74915c9.63595,4.42034,22.80554,8.691,32.92376,9.38348l-16.0274,7.51282-7.51047,16.02508C951.52345,1020.55231,947.25276,1007.38263,942.83,997.74915Z" transform="translate(0.5 0.5)"/><line class="cls-9" x1="1201.05546" y1="1044.37231" x2="1169.86851" y2="1013.18536"/><path class="cls-10" d="M1154.43223,997.74915c9.63592,4.42034,22.80554,8.691,32.92377,9.38348l-16.02747,7.51282-7.51038,16.02508C1163.12571,1020.55231,1158.855,1007.38263,1154.43223,997.74915Z" transform="translate(0.5 0.5)"/><line class="cls-9" x1="1412.65769" y1="1044.37231" x2="1381.47074" y2="1013.18536"/><path class="cls-10" d="M1366.03446,997.74915c9.63593,4.42034,22.80554,8.691,32.92377,9.38348l-16.0274,7.51282-7.51044,16.02508C1374.72794,1020.55231,1370.45725,1007.38263,1366.03446,997.74915Z" transform="translate(0.5 0.5)"/></g></svg>