<svg xmlns="http://www.w3.org/2000/svg" viewBox="0 0 1835.74468 1051.78723"><defs><style>.cls-1{fill:#fff;}.cls-2{fill:#b7e1ee;}.cls-12,.cls-16,.cls-17,.cls-2,.cls-4,.cls-5,.cls-7{stroke:#231815;}.cls-11,.cls-12,.cls-13,.cls-14,.cls-16,.cls-17,.cls-2,.cls-4,.cls-5,.cls-7{stroke-miterlimit:10;}.cls-2,.cls-4,.cls-7{stroke-width:2px;}.cls-10,.cls-3,.cls-6,.cls-8{font-size:37px;font-family:ArialMT, Arial;}.cls-3{fill:#231815;}.cls-4{fill:#b4dce8;}.cls-11,.cls-12,.cls-13,.cls-14,.cls-17,.cls-5{fill:none;}.cls-5{stroke-width:3px;}.cls-6{fill:#006934;}.cls-7{fill:#f8b62d;}.cls-15,.cls-16,.cls-8{fill:#e4007f;}.cls-9{letter-spacing:-0.07422em;}.cls-10{fill:#e60012;}.cls-11{stroke:#e60012;}.cls-11,.cls-12,.cls-13,.cls-14,.cls-16{stroke-width:7px;}.cls-13{stroke:#006934;}.cls-14{stroke:#e4007f;}.cls-17{stroke-width:5px;}</style></defs><g id="圖層_2" data-name="圖層 2"><rect class="cls-1" width="1835.74468" height="1051.78723"/></g><g id="圖層_1" data-name="圖層 1"><circle class="cls-2" cx="870.59485" cy="73.88294" r="26.42553"/><text class="cls-3" transform="translate(860.30612 87.62701)">0</text><rect class="cls-4" x="785.19059" y="101.70735" width="170.80851" height="58.97872" rx="24.51064"/><text class="cls-3" transform="translate(795.26027 145.49134)">87</text><text class="cls-3" transform="translate(861.86031 145.49158)">0</text><text class="cls-3" transform="translate(913.92312 145.49157)">7</text><line class="cls-5" x1="842.12676" y1="101.70735" x2="842.12676" y2="160.68607"/><line class="cls-5" x1="899.06293" y1="101.70735" x2="899.06293" y2="160.68607"/><circle class="cls-2" cx="235.78815" cy="580.58113" r="26.42553"/><text class="cls-6" transform="translate(225.4994 594.32513)">3</text><rect class="cls-4" x="150.3839" y="608.40554" width="170.80851" height="58.97872" rx="24.51064"/><text class="cls-3" transform="translate(160.45353 652.18942)">58</text><text class="cls-3" transform="translate(227.0536 652.18967)">0</text><text class="cls-6" transform="translate(279.1164 652.18967)">1</text><line class="cls-5" x1="207.32007" y1="608.40554" x2="207.32007" y2="667.38427"/><line class="cls-5" x1="264.25624" y1="608.40554" x2="264.25624" y2="667.38427"/><circle class="cls-7" cx="658.99262" cy="580.58113" r="26.42553"/><text class="cls-8" transform="translate(648.70386 594.32513)">4</text><rect class="cls-7" x="573.58836" y="608.40554" width="170.80851" height="58.97872" rx="24.51064"/><text class="cls-3" transform="translate(583.65802 652.18948)">36</text><text class="cls-8" transform="translate(650.25806 652.18973)">2</text><text class="cls-8" transform="translate(702.32086 652.18973)">3</text><line class="cls-5" x1="630.52453" y1="608.40554" x2="630.52453" y2="667.38427"/><line class="cls-5" x1="687.4607" y1="608.40554" x2="687.4607" y2="667.38427"/><circle class="cls-2" cx="1082.19708" cy="580.58113" r="26.42553"/><text class="cls-3" transform="translate(1071.90833 594.3251)">5</text><rect class="cls-4" x="996.79282" y="608.40554" width="170.80851" height="58.97872" rx="24.51064"/><text class="cls-3" transform="translate(1006.8625 652.18948)">87</text><text class="cls-3" transform="translate(1073.46253 652.18973)">4</text><text class="cls-3" transform="translate(1125.52534 652.18973)">5</text><line class="cls-5" x1="1053.72899" y1="608.40554" x2="1053.72899" y2="667.38427"/><line class="cls-5" x1="1110.66516" y1="608.40554" x2="1110.66516" y2="667.38427"/><circle class="cls-2" cx="1505.40154" cy="580.58113" r="26.42553"/><text class="cls-3" transform="translate(1495.11277 594.32507)"><tspan xml:space="preserve">6  </tspan></text><rect class="cls-4" x="1419.99728" y="608.40554" width="170.80851" height="58.97872" rx="24.51064"/><text class="cls-3" transform="translate(1430.06693 652.18942)">24</text><text class="cls-3" transform="translate(1496.66697 652.18967)">6</text><text class="cls-3" transform="translate(1548.72978 652.18967)">7</text><line class="cls-5" x1="1476.93345" y1="608.40554" x2="1476.93345" y2="667.38427"/><line class="cls-5" x1="1533.86962" y1="608.40554" x2="1533.86962" y2="667.38427"/><circle class="cls-2" cx="129.98704" cy="833.93023" r="26.42553"/><text class="cls-3" transform="translate(119.69828 847.67432)">7</text><rect class="cls-4" x="44.58278" y="861.75464" width="170.80851" height="58.97872" rx="24.51064"/><text class="cls-3" transform="translate(54.65244 905.53864)">58</text><text class="cls-3" transform="translate(121.25248 905.53888)">0</text><text class="cls-3" transform="translate(173.31529 905.53888)">0</text><line class="cls-5" x1="101.51895" y1="861.75464" x2="101.51895" y2="920.73336"/><line class="cls-5" x1="158.45512" y1="861.75464" x2="158.45512" y2="920.73336"/><text class="cls-3" transform="translate(385.45042 905.53888)">1</text><circle class="cls-7" cx="341.58927" cy="833.93023" r="26.42553"/><text class="cls-8" transform="translate(331.30048 847.67432)">8</text><rect class="cls-7" x="256.18501" y="861.75464" width="170.80851" height="58.97872" rx="24.51064"/><text class="cls-8" transform="translate(332.85468 905.53888)">1</text><text class="cls-8" transform="translate(384.9398 905.53888)">1</text><text class="cls-3" transform="translate(274.64192 905.53888)">1</text><line class="cls-5" x1="313.12119" y1="861.75464" x2="313.12119" y2="920.73336"/><line class="cls-5" x1="370.05736" y1="861.75464" x2="370.05736" y2="920.73336"/><circle class="cls-2" cx="553.1915" cy="833.93023" r="26.42553"/><text class="cls-3" transform="translate(542.90275 847.67432)">9</text><rect class="cls-4" x="467.78725" y="861.75464" width="170.80851" height="58.97872" rx="24.51064"/><text class="cls-3" transform="translate(477.85691 905.53864)">36</text><text class="cls-3" transform="translate(544.45695 905.53888)">2</text><text class="cls-3" transform="translate(596.51973 905.53888)">2</text><line class="cls-5" x1="524.72342" y1="861.75464" x2="524.72342" y2="920.73336"/><line class="cls-5" x1="581.65959" y1="861.75464" x2="581.65959" y2="920.73336"/><circle class="cls-2" cx="764.79373" cy="833.93023" r="26.42553"/><text class="cls-3" transform="translate(740.85833 847.67432)">10</text><rect class="cls-4" x="679.38948" y="861.75464" width="170.80851" height="58.97872" rx="24.51064"/><text class="cls-3" transform="translate(689.45913 905.53864)">27</text><text class="cls-3" transform="translate(756.05916 905.53888)">3</text><text class="cls-3" transform="translate(808.12196 905.53888)">3</text><line class="cls-5" x1="736.32565" y1="861.75464" x2="736.32565" y2="920.73336"/><line class="cls-5" x1="793.26182" y1="861.75464" x2="793.26182" y2="920.73336"/><circle class="cls-7" cx="976.39596" cy="833.93023" r="26.42553"/><text class="cls-8" transform="translate(956.4564 847.67432)"><tspan class="cls-9">1</tspan><tspan x="17.83154" y="0">1</tspan></text><rect class="cls-7" x="890.99171" y="861.75464" width="170.80851" height="58.97872" rx="24.51064"/><text class="cls-3" transform="translate(901.06138 905.53864)">50</text><text class="cls-8" transform="translate(967.66135 905.53888)">4</text><text class="cls-8" transform="translate(1019.72416 905.53888)">4</text><line class="cls-5" x1="947.92788" y1="861.75464" x2="947.92788" y2="920.73336"/><line class="cls-5" x1="1004.86405" y1="861.75464" x2="1004.86405" y2="920.73336"/><circle class="cls-2" cx="1187.99819" cy="833.93023" r="26.42553"/><text class="cls-3" transform="translate(1167.6013 847.67432)">12 </text><rect class="cls-4" x="1102.59394" y="861.75464" width="170.80851" height="58.97872" rx="24.51064"/><text class="cls-3" transform="translate(1112.66358 905.53864)">87</text><text class="cls-3" transform="translate(1179.26359 905.53888)">5</text><text class="cls-3" transform="translate(1232.39262 905.53888)">5</text><line class="cls-5" x1="1159.53011" y1="861.75464" x2="1159.53011" y2="920.73336"/><line class="cls-5" x1="1216.46628" y1="861.75464" x2="1216.46628" y2="920.73336"/><circle class="cls-2" cx="1396.24247" cy="833.93023" r="26.42553"/><text class="cls-3" transform="translate(1375.66502 847.67432)">13</text><rect class="cls-4" x="1314.19617" y="861.75464" width="170.80851" height="58.97872" rx="24.51064"/><text class="cls-3" transform="translate(1324.26585 905.53864)">24</text><text class="cls-3" transform="translate(1390.86582 905.53888)">6</text><text class="cls-3" transform="translate(1442.92863 905.53888)">6</text><line class="cls-5" x1="1371.13234" y1="861.75464" x2="1371.13234" y2="920.73336"/><line class="cls-5" x1="1428.06851" y1="861.75464" x2="1428.06851" y2="920.73336"/><circle class="cls-2" cx="1611.20265" cy="833.93023" r="26.42553"/><text class="cls-3" transform="translate(1587.26725 847.67432)">14</text><rect class="cls-4" x="1525.7984" y="861.75464" width="170.80851" height="58.97872" rx="24.51064"/><text class="cls-3" transform="translate(1545.01444 905.53864)">0</text><text class="cls-3" transform="translate(1602.46806 905.53888)">7</text><text class="cls-3" transform="translate(1654.53086 905.53888)">7</text><line class="cls-5" x1="1582.73457" y1="861.75464" x2="1582.73457" y2="920.73336"/><line class="cls-5" x1="1639.67074" y1="861.75464" x2="1639.67074" y2="920.73336"/><circle class="cls-2" cx="447.39039" cy="327.23203" r="26.42553"/><text class="cls-10" transform="translate(437.10163 340.97609)">1</text><rect class="cls-4" x="361.98613" y="355.05645" width="170.80851" height="58.97872" rx="24.51064"/><text class="cls-3" transform="translate(372.05579 398.84041)">58</text><text class="cls-3" transform="translate(438.65583 398.84065)">0</text><text class="cls-10" transform="translate(490.71864 398.84065)">3</text><line class="cls-5" x1="418.9223" y1="355.05645" x2="418.9223" y2="414.03517"/><line class="cls-5" x1="475.85847" y1="355.05645" x2="475.85847" y2="414.03517"/><circle class="cls-2" cx="1293.79931" cy="327.23203" r="26.42553"/><text class="cls-10" transform="translate(1283.51054 340.97609)">2</text><rect class="cls-4" x="1208.39505" y="355.05645" width="170.80851" height="58.97872" rx="24.51064"/><text class="cls-3" transform="translate(1218.4647 398.84041)">87</text><text class="cls-10" transform="translate(1285.06474 398.84065)">4</text><text class="cls-3" transform="translate(1337.12754 398.84065)">7</text><line class="cls-5" x1="1265.33122" y1="355.05645" x2="1265.33122" y2="414.03517"/><line class="cls-5" x1="1322.26739" y1="355.05645" x2="1322.26739" y2="414.03517"/><text class="cls-3" transform="translate(1571.44993 340.97615)">Legend</text><circle class="cls-2" cx="1484.91061" cy="105.47951" r="48.70179"/><rect class="cls-4" x="1327.51209" y="156.75941" width="314.79705" height="69.48181" rx="24.51064"/><line class="cls-5" x1="1432.44444" y1="156.75941" x2="1432.44444" y2="226.24099"/><line class="cls-5" x1="1537.37679" y1="156.75941" x2="1537.37679" y2="226.68508"/><text class="cls-3" transform="translate(1442.0557 117.43207)">index</text><text class="cls-3" transform="translate(1343.92484 202.75053)">data</text><text class="cls-3" transform="translate(1444.49802 202.34429)">lower</text><text class="cls-10" transform="translate(793.83044 215.32371)">lower = 1</text><text class="cls-3" transform="translate(1542.64713 202.344)">upper</text><text class="cls-10" transform="translate(793.09045 266.18823)">upper = 4</text><text class="cls-10" transform="translate(737.44524 327.23212)">split to two part</text><text class="cls-6" transform="translate(316.68223 580.5813)">split to two part</text><text class="cls-10" transform="translate(1217.03507 495.62933)">lower = 4</text><text class="cls-10" transform="translate(1216.29508 546.49387)">upper = 4</text><text class="cls-10" transform="translate(376.43858 484.58514)">lower = 1</text><text class="cls-10" transform="translate(375.69857 535.44968)">upper = 3</text><text class="cls-6" transform="translate(169.30323 776.7359)">lower=1</text><text class="cls-6" transform="translate(168.56321 827.60046)">upper=1</text><text class="cls-8" transform="translate(264.82496 968.28131)">lower = 1</text><text class="cls-8" transform="translate(264.08494 1019.14587)">upper = 1</text><text class="cls-8" transform="translate(899.63166 968.28131)">lower = 4</text><text class="cls-8" transform="translate(898.89164 1019.14587)">upper = 4</text><text class="cls-8" transform="translate(1023.33109 770.20758)">lower=4</text><text class="cls-8" transform="translate(1022.59107 821.07214)">upper=4</text><text class="cls-8" transform="translate(592.50769 775.56537)">lower=2</text><text class="cls-8" transform="translate(591.76767 826.42993)">upper=3</text><line class="cls-11" x1="963.78318" y1="159.94864" x2="1219.9813" y2="334.77829"/><line class="cls-11" x1="777.24677" y1="159.94864" x2="521.04865" y2="334.77829"/><line class="cls-12" x1="1355.99717" y1="443.54425" x2="1453.80413" y2="547.71446"/><line class="cls-13" x1="524.68488" y1="443.54425" x2="622.49184" y2="547.71446"/><line class="cls-14" x1="1216.96183" y1="443.54425" x2="1136.5051" y2="529.23547"/><path class="cls-15" d="M1119.15489,547.71448c4.93768-11.72443,9.56237-27.68152,10.01049-39.84354l9.61658,18.93948,19.50433,8.40253C1146.17661,536.42584,1130.54228,542.04578,1119.15489,547.71448Z"/><line class="cls-13" x1="381.72057" y1="443.54425" x2="283.91361" y2="547.71446"/><line class="cls-12" x1="1533.86962" y1="690.18255" x2="1611.20265" y2="776.73574"/><line class="cls-12" x1="1113.44482" y1="690.18255" x2="1190.77785" y2="776.73574"/><line class="cls-12" x1="685.41815" y1="690.18255" x2="762.75118" y2="776.73574"/><line class="cls-14" x1="262.21369" y1="690.18256" x2="322.65828" y2="757.83374"/><path class="cls-15" d="M339.54672,776.73572c-11.24693-5.94556-26.73766-11.95-38.81368-13.46161l19.709-7.92084,10.07844-18.69348C330.66808,748.82916,334.89712,764.89563,339.54672,776.73572Z"/><line class="cls-16" x1="207.32007" y1="690.18255" x2="129.98704" y2="776.73574"/><line class="cls-12" x1="630.52453" y1="690.18255" x2="553.1915" y2="776.73574"/><line class="cls-14" x1="1053.72898" y1="696.36536" x2="993.2844" y2="764.01654"/><path class="cls-15" d="M976.396,782.91858c4.64655-11.84284,8.87561-27.9093,9.0232-40.07868l10.08148,18.69617,19.70593,7.91809C1003.13059,770.96582,987.63981,776.97028,976.396,782.91858Z"/><line class="cls-12" x1="1476.93345" y1="696.36536" x2="1399.60042" y2="782.91855"/><rect class="cls-17" x="1289.56174" y="17.36807" width="402.85341" height="256.57895"/></g></svg>