<svg width="1906" height="1186" xmlns="http://www.w3.org/2000/svg" xmlns:xlink="http://www.w3.org/1999/xlink" overflow="hidden"><defs><clipPath id="clip0"><rect x="-1" y="-1" width="1906" height="1186"/></clipPath><clipPath id="clip1"><rect x="0" y="0" width="1903" height="1182"/></clipPath><clipPath id="clip2"><rect x="0" y="0" width="1903" height="1182"/></clipPath><clipPath id="clip3"><rect x="0" y="0" width="1903" height="1182"/></clipPath><clipPath id="clip4"><rect x="0" y="0" width="1903" height="1182"/></clipPath><clipPath id="clip5"><rect x="267" y="165" width="1542" height="854"/></clipPath><clipPath id="clip6"><rect x="0" y="0" width="1903" height="1182"/></clipPath><clipPath id="clip7"><rect x="267" y="165" width="1542" height="854"/></clipPath><clipPath id="clip8"><rect x="0" y="0" width="1903" height="1182"/></clipPath><clipPath id="clip9"><rect x="267" y="165" width="1542" height="854"/></clipPath><clipPath id="clip10"><rect x="0" y="0" width="1903" height="1182"/></clipPath><clipPath id="clip11"><rect x="267" y="165" width="1542" height="854"/></clipPath><clipPath id="clip12"><rect x="0" y="0" width="1903" height="1182"/></clipPath><clipPath id="clip13"><rect x="0" y="0" width="1903" height="1182"/></clipPath><clipPath id="clip14"><rect x="0" y="0" width="1903" height="1182"/></clipPath><clipPath id="clip15"><rect x="0" y="0" width="1903" height="1182"/></clipPath><clipPath id="clip16"><rect x="0" y="0" width="1903" height="1182"/></clipPath><clipPath id="clip17"><rect x="0" y="0" width="1903" height="1182"/></clipPath><clipPath id="clip18"><rect x="0" y="0" width="1903" height="1182"/></clipPath><clipPath id="clip19"><rect x="0" y="0" width="1903" height="1182"/></clipPath><clipPath id="clip20"><rect x="0" y="0" width="1903" height="1182"/></clipPath><clipPath id="clip21"><rect x="0" y="0" width="1903" height="1182"/></clipPath><clipPath id="clip22"><rect x="0" y="0" width="1903" height="1182"/></clipPath><clipPath id="clip23"><rect x="0" y="0" width="1903" height="1182"/></clipPath><clipPath id="clip24"><rect x="0" y="0" width="1903" height="1182"/></clipPath><clipPath id="clip25"><rect x="0" y="0" width="1903" height="1182"/></clipPath><clipPath id="clip26"><rect x="0" y="0" width="1903" height="1182"/></clipPath><clipPath id="clip27"><rect x="0" y="0" width="1903" height="1182"/></clipPath><clipPath id="clip28"><rect x="0" y="0" width="1903" height="1182"/></clipPath><clipPath id="clip29"><rect x="0" y="0" width="1903" height="1182"/></clipPath><clipPath id="clip30"><rect x="0" y="0" width="1903" height="1182"/></clipPath><clipPath id="clip31"><rect x="0" y="0" width="1903" height="1182"/></clipPath><clipPath id="clip32"><rect x="0" y="0" width="1903" height="1182"/></clipPath><clipPath id="clip33"><rect x="0" y="0" width="1903" height="1182"/></clipPath><clipPath id="clip34"><rect x="0" y="0" width="1903" height="1182"/></clipPath><clipPath id="clip35"><rect x="0" y="0" width="1903" height="1182"/></clipPath><clipPath id="clip36"><rect x="0" y="0" width="1903" height="1182"/></clipPath><clipPath id="clip37"><rect x="0" y="0" width="1903" height="1182"/></clipPath><clipPath id="clip38"><rect x="0" y="0" width="1903" height="1182"/></clipPath><clipPath id="clip39"><rect x="0" y="0" width="1903" height="1182"/></clipPath><clipPath id="clip40"><rect x="0" y="0" width="1903" height="1182"/></clipPath><clipPath id="clip41"><rect x="0" y="0" width="1903" height="1182"/></clipPath><clipPath id="clip42"><rect x="0" y="0" width="1903" height="1182"/></clipPath><clipPath id="clip43"><rect x="0" y="0" width="1903" height="1182"/></clipPath><clipPath id="clip44"><rect x="0" y="0" width="1903" height="1182"/></clipPath><clipPath id="clip45"><rect x="0" y="0" width="1903" height="1182"/></clipPath></defs><g clip-path="url(#clip0)" transform="translate(1 1)"><rect x="0" y="0" width="1903" height="1183" fill="#FFFFFF"/><g clip-path="url(#clip1)"><path d="M267.5 931.531 1806.5 931.531M267.5 846.528 1806.5 846.528M267.5 761.525 1806.5 761.525M267.5 675.522 1806.5 675.522M267.5 590.52 1806.5 590.52M267.5 505.517 1806.5 505.517M267.5 420.514 1806.5 420.514M267.5 335.511 1806.5 335.511M267.5 250.508 1806.5 250.508M267.5 165.5 1806.5 165.5" stroke="#D9D9D9" stroke-width="3.4375" stroke-linejoin="round" stroke-miterlimit="10" fill="none"/></g><g clip-path="url(#clip2)"><path d="M524.517 165.5 524.517 1016.5M780.526 165.5 780.526 1016.5M1036.53 165.5 1036.53 1016.5M1293.54 165.5 1293.54 1016.5M1549.55 165.5 1549.55 1016.5M1806.5 165.5 1806.5 1016.5" stroke="#D9D9D9" stroke-width="3.4375" stroke-linejoin="round" stroke-miterlimit="10" fill="none"/></g><g clip-path="url(#clip3)"><path d="M0 0 0.000360892 851" stroke="#BFBFBF" stroke-width="3.4375" stroke-linejoin="round" stroke-miterlimit="10" fill="none" fill-rule="evenodd" transform="matrix(1 0 0 -1 267.5 1016.5)"/></g><g clip-path="url(#clip4)"><path d="M267.5 1016.5 1806.5 1016.5" stroke="#BFBFBF" stroke-width="3.4375" stroke-linejoin="round" stroke-miterlimit="10" fill="none" fill-rule="evenodd"/></g><g clip-path="url(#clip5)"><path d="M395.5 973.5C438.241 945.136 480.981 902.591 523.722 888.409 566.463 874.227 609.203 895.5 651.945 888.409 694.685 881.318 737.426 860.045 780.167 845.863 822.907 831.682 865.648 817.5 908.389 803.318 951.13 789.136 993.87 782.045 1036.61 760.773 1079.35 739.5 1122.09 689.863 1164.83 675.682 1207.57 661.5 1250.31 682.772 1293.06 675.682 1335.8 668.59 1378.54 661.5 1421.28 633.136 1464.02 604.773 1506.76 548.045 1549.5 505.5" stroke="#A5A5A5" stroke-width="6.875" stroke-linecap="round" stroke-linejoin="round" stroke-miterlimit="10" fill="none"/></g><g clip-path="url(#clip6)"><path d="M406.499 973.5C406.499 979.575 401.575 984.499 395.5 984.499 389.425 984.499 384.5 979.575 384.5 973.5 384.5 967.425 389.425 962.5 395.5 962.5 401.575 962.5 406.499 967.425 406.499 973.5Z" stroke="#A5A5A5" stroke-width="3.4375" stroke-linejoin="round" stroke-miterlimit="10" fill="#A5A5A5"/><path d="M535.499 888.5C535.499 894.575 530.575 899.499 524.5 899.499 518.425 899.499 513.5 894.575 513.5 888.5 513.5 882.425 518.425 877.5 524.5 877.5 530.575 877.5 535.499 882.425 535.499 888.5Z" stroke="#A5A5A5" stroke-width="3.4375" stroke-linejoin="round" stroke-miterlimit="10" fill="#A5A5A5"/><path d="M663.499 888.5C663.499 894.575 658.575 899.499 652.5 899.499 646.425 899.499 641.5 894.575 641.5 888.5 641.5 882.425 646.425 877.5 652.5 877.5 658.575 877.5 663.499 882.425 663.499 888.5Z" stroke="#A5A5A5" stroke-width="3.4375" stroke-linejoin="round" stroke-miterlimit="10" fill="#A5A5A5"/><path d="M791.499 846.5C791.499 852.575 786.575 857.499 780.5 857.499 774.425 857.499 769.5 852.575 769.5 846.5 769.5 840.425 774.425 835.5 780.5 835.5 786.575 835.5 791.499 840.425 791.499 846.5Z" stroke="#A5A5A5" stroke-width="3.4375" stroke-linejoin="round" stroke-miterlimit="10" fill="#A5A5A5"/><path d="M919.499 803.5C919.499 809.575 914.575 814.499 908.5 814.499 902.425 814.499 897.5 809.575 897.5 803.5 897.5 797.425 902.425 792.5 908.5 792.5 914.575 792.5 919.499 797.425 919.499 803.5Z" stroke="#A5A5A5" stroke-width="3.4375" stroke-linejoin="round" stroke-miterlimit="10" fill="#A5A5A5"/><path d="M1047.5 761.5C1047.5 767.574 1042.57 772.499 1036.5 772.499 1030.42 772.499 1025.5 767.574 1025.5 761.5 1025.5 755.425 1030.42 750.5 1036.5 750.5 1042.57 750.5 1047.5 755.425 1047.5 761.5Z" stroke="#A5A5A5" stroke-width="3.4375" stroke-linejoin="round" stroke-miterlimit="10" fill="#A5A5A5"/><path d="M1176.5 675.5C1176.5 681.575 1171.57 686.499 1165.5 686.499 1159.42 686.499 1154.5 681.575 1154.5 675.5 1154.5 669.425 1159.42 664.5 1165.5 664.5 1171.57 664.5 1176.5 669.425 1176.5 675.5Z" stroke="#A5A5A5" stroke-width="3.4375" stroke-linejoin="round" stroke-miterlimit="10" fill="#A5A5A5"/><path d="M1304.5 675.5C1304.5 681.575 1299.57 686.499 1293.5 686.499 1287.42 686.499 1282.5 681.575 1282.5 675.5 1282.5 669.425 1287.42 664.5 1293.5 664.5 1299.57 664.5 1304.5 669.425 1304.5 675.5Z" stroke="#A5A5A5" stroke-width="3.4375" stroke-linejoin="round" stroke-miterlimit="10" fill="#A5A5A5"/><path d="M1432.5 633.5C1432.5 639.575 1427.57 644.499 1421.5 644.499 1415.42 644.499 1410.5 639.575 1410.5 633.5 1410.5 627.425 1415.42 622.5 1421.5 622.5 1427.57 622.5 1432.5 627.425 1432.5 633.5Z" stroke="#A5A5A5" stroke-width="3.4375" stroke-linejoin="round" stroke-miterlimit="10" fill="#A5A5A5"/><path d="M1560.5 505.5C1560.5 511.575 1555.57 516.499 1549.5 516.499 1543.42 516.499 1538.5 511.575 1538.5 505.5 1538.5 499.425 1543.42 494.5 1549.5 494.5 1555.57 494.5 1560.5 499.425 1560.5 505.5Z" stroke="#A5A5A5" stroke-width="3.4375" stroke-linejoin="round" stroke-miterlimit="10" fill="#A5A5A5"/></g><g clip-path="url(#clip7)"><path d="M395.5 973.5C438.241 945.141 480.981 902.602 523.722 888.423 566.463 874.244 609.203 902.602 651.945 888.423 694.685 874.244 737.426 831.705 780.167 803.346 822.907 774.987 865.648 732.448 908.389 718.269 951.13 704.09 993.87 739.538 1036.61 718.269 1079.35 697 1122.09 611.923 1164.83 590.654 1207.57 569.384 1250.31 604.833 1293.06 590.654 1335.8 576.474 1378.54 533.936 1421.28 505.577 1464.02 477.218 1506.76 448.859 1549.5 420.5" stroke="#5B9BD5" stroke-width="6.875" stroke-linecap="round" stroke-linejoin="round" stroke-miterlimit="10" fill="none"/></g><g clip-path="url(#clip8)"><path d="M406.499 973.5C406.499 979.575 401.575 984.499 395.5 984.499 389.425 984.499 384.5 979.575 384.5 973.5 384.5 967.425 389.425 962.5 395.5 962.5 401.575 962.5 406.499 967.425 406.499 973.5Z" stroke="#5B9BD5" stroke-width="3.4375" stroke-linejoin="round" stroke-miterlimit="10" fill="#5B9BD5"/><path d="M535.499 888.5C535.499 894.575 530.575 899.499 524.5 899.499 518.425 899.499 513.5 894.575 513.5 888.5 513.5 882.425 518.425 877.5 524.5 877.5 530.575 877.5 535.499 882.425 535.499 888.5Z" stroke="#5B9BD5" stroke-width="3.4375" stroke-linejoin="round" stroke-miterlimit="10" fill="#5B9BD5"/><path d="M663.499 888.5C663.499 894.575 658.575 899.499 652.5 899.499 646.425 899.499 641.5 894.575 641.5 888.5 641.5 882.425 646.425 877.5 652.5 877.5 658.575 877.5 663.499 882.425 663.499 888.5Z" stroke="#5B9BD5" stroke-width="3.4375" stroke-linejoin="round" stroke-miterlimit="10" fill="#5B9BD5"/><path d="M791.499 803.5C791.499 809.575 786.575 814.499 780.5 814.499 774.425 814.499 769.5 809.575 769.5 803.5 769.5 797.425 774.425 792.5 780.5 792.5 786.575 792.5 791.499 797.425 791.499 803.5Z" stroke="#5B9BD5" stroke-width="3.4375" stroke-linejoin="round" stroke-miterlimit="10" fill="#5B9BD5"/><path d="M919.499 718.5C919.499 724.575 914.575 729.499 908.5 729.499 902.425 729.499 897.5 724.575 897.5 718.5 897.5 712.425 902.425 707.5 908.5 707.5 914.575 707.5 919.499 712.425 919.499 718.5Z" stroke="#5B9BD5" stroke-width="3.4375" stroke-linejoin="round" stroke-miterlimit="10" fill="#5B9BD5"/><path d="M1047.5 718.5C1047.5 724.575 1042.57 729.499 1036.5 729.499 1030.42 729.499 1025.5 724.575 1025.5 718.5 1025.5 712.425 1030.42 707.5 1036.5 707.5 1042.57 707.5 1047.5 712.425 1047.5 718.5Z" stroke="#5B9BD5" stroke-width="3.4375" stroke-linejoin="round" stroke-miterlimit="10" fill="#5B9BD5"/><path d="M1176.5 590.5C1176.5 596.575 1171.57 601.499 1165.5 601.499 1159.42 601.499 1154.5 596.575 1154.5 590.5 1154.5 584.425 1159.42 579.5 1165.5 579.5 1171.57 579.5 1176.5 584.425 1176.5 590.5Z" stroke="#5B9BD5" stroke-width="3.4375" stroke-linejoin="round" stroke-miterlimit="10" fill="#5B9BD5"/><path d="M1304.5 590.5C1304.5 596.575 1299.57 601.499 1293.5 601.499 1287.42 601.499 1282.5 596.575 1282.5 590.5 1282.5 584.425 1287.42 579.5 1293.5 579.5 1299.57 579.5 1304.5 584.425 1304.5 590.5Z" stroke="#5B9BD5" stroke-width="3.4375" stroke-linejoin="round" stroke-miterlimit="10" fill="#5B9BD5"/><path d="M1432.5 505.5C1432.5 511.575 1427.57 516.499 1421.5 516.499 1415.42 516.499 1410.5 511.575 1410.5 505.5 1410.5 499.425 1415.42 494.5 1421.5 494.5 1427.57 494.5 1432.5 499.425 1432.5 505.5Z" stroke="#5B9BD5" stroke-width="3.4375" stroke-linejoin="round" stroke-miterlimit="10" fill="#5B9BD5"/><path d="M1560.5 420.5C1560.5 426.574 1555.57 431.499 1549.5 431.499 1543.42 431.499 1538.5 426.574 1538.5 420.5 1538.5 414.425 1543.42 409.5 1549.5 409.5 1555.57 409.5 1560.5 414.425 1560.5 420.5Z" stroke="#5B9BD5" stroke-width="3.4375" stroke-linejoin="round" stroke-miterlimit="10" fill="#5B9BD5"/></g><g clip-path="url(#clip9)"><path d="M395.5 931.5C438.241 917.312 480.981 910.219 523.722 888.938 566.463 867.656 609.203 832.187 651.945 803.813 694.685 775.438 737.426 747.062 780.167 718.688 822.907 690.312 865.648 654.844 908.389 633.563 951.13 612.281 993.87 612.281 1036.61 591 1079.35 569.719 1122.09 541.344 1164.83 505.875 1207.57 470.406 1250.31 413.656 1293.06 378.187 1335.8 342.718 1378.54 314.344 1421.28 293.062 1464.02 271.781 1506.76 264.687 1549.5 250.5" stroke="#FFC000" stroke-width="6.875" stroke-linecap="round" stroke-linejoin="round" stroke-miterlimit="10" fill="none"/></g><g clip-path="url(#clip10)"><path d="M406.499 931.5C406.499 937.575 401.575 942.499 395.5 942.499 389.425 942.499 384.5 937.575 384.5 931.5 384.5 925.425 389.425 920.5 395.5 920.5 401.575 920.5 406.499 925.425 406.499 931.5Z" stroke="#FFC000" stroke-width="3.4375" stroke-linejoin="round" stroke-miterlimit="10" fill="#FFC000"/><path d="M535.499 888.5C535.499 894.575 530.575 899.499 524.5 899.499 518.425 899.499 513.5 894.575 513.5 888.5 513.5 882.425 518.425 877.5 524.5 877.5 530.575 877.5 535.499 882.425 535.499 888.5Z" stroke="#FFC000" stroke-width="3.4375" stroke-linejoin="round" stroke-miterlimit="10" fill="#FFC000"/><path d="M663.499 803.5C663.499 809.575 658.575 814.499 652.5 814.499 646.425 814.499 641.5 809.575 641.5 803.5 641.5 797.425 646.425 792.5 652.5 792.5 658.575 792.5 663.499 797.425 663.499 803.5Z" stroke="#FFC000" stroke-width="3.4375" stroke-linejoin="round" stroke-miterlimit="10" fill="#FFC000"/><path d="M791.499 718.5C791.499 724.575 786.575 729.499 780.5 729.499 774.425 729.499 769.5 724.575 769.5 718.5 769.5 712.425 774.425 707.5 780.5 707.5 786.575 707.5 791.499 712.425 791.499 718.5Z" stroke="#FFC000" stroke-width="3.4375" stroke-linejoin="round" stroke-miterlimit="10" fill="#FFC000"/><path d="M919.499 633.5C919.499 639.575 914.575 644.499 908.5 644.499 902.425 644.499 897.5 639.575 897.5 633.5 897.5 627.425 902.425 622.5 908.5 622.5 914.575 622.5 919.499 627.425 919.499 633.5Z" stroke="#FFC000" stroke-width="3.4375" stroke-linejoin="round" stroke-miterlimit="10" fill="#FFC000"/><path d="M1047.5 590.5C1047.5 596.575 1042.57 601.499 1036.5 601.499 1030.42 601.499 1025.5 596.575 1025.5 590.5 1025.5 584.425 1030.42 579.5 1036.5 579.5 1042.57 579.5 1047.5 584.425 1047.5 590.5Z" stroke="#FFC000" stroke-width="3.4375" stroke-linejoin="round" stroke-miterlimit="10" fill="#FFC000"/><path d="M1176.5 505.5C1176.5 511.575 1171.57 516.499 1165.5 516.499 1159.42 516.499 1154.5 511.575 1154.5 505.5 1154.5 499.425 1159.42 494.5 1165.5 494.5 1171.57 494.5 1176.5 499.425 1176.5 505.5Z" stroke="#FFC000" stroke-width="3.4375" stroke-linejoin="round" stroke-miterlimit="10" fill="#FFC000"/><path d="M1304.5 378.5C1304.5 384.575 1299.57 389.499 1293.5 389.499 1287.42 389.499 1282.5 384.575 1282.5 378.5 1282.5 372.425 1287.42 367.5 1293.5 367.5 1299.57 367.5 1304.5 372.425 1304.5 378.5Z" stroke="#FFC000" stroke-width="3.4375" stroke-linejoin="round" stroke-miterlimit="10" fill="#FFC000"/><path d="M1432.5 293.5C1432.5 299.575 1427.57 304.499 1421.5 304.499 1415.42 304.499 1410.5 299.575 1410.5 293.5 1410.5 287.425 1415.42 282.5 1421.5 282.5 1427.57 282.5 1432.5 287.425 1432.5 293.5Z" stroke="#FFC000" stroke-width="3.4375" stroke-linejoin="round" stroke-miterlimit="10" fill="#FFC000"/><path d="M1560.5 250.5C1560.5 256.575 1555.57 261.499 1549.5 261.499 1543.42 261.499 1538.5 256.575 1538.5 250.5 1538.5 244.425 1543.42 239.5 1549.5 239.5 1555.57 239.5 1560.5 244.425 1560.5 250.5Z" stroke="#FFC000" stroke-width="3.4375" stroke-linejoin="round" stroke-miterlimit="10" fill="#FFC000"/></g><g clip-path="url(#clip11)"><path d="M395.5 973.5C438.241 959.337 480.981 938.092 523.722 931.01 566.463 923.928 609.203 945.173 651.945 931.01 694.685 916.847 737.426 867.275 780.167 846.031 822.907 824.785 865.648 810.622 908.389 803.541 951.13 796.459 993.87 810.622 1036.61 803.541 1079.35 796.459 1122.09 782.296 1164.83 761.051 1207.57 739.806 1250.31 697.316 1293.06 676.072 1335.8 654.826 1378.54 640.664 1421.28 633.582 1464.02 626.5 1506.76 633.582 1549.5 633.582" stroke="#70AD47" stroke-width="6.875" stroke-linecap="round" stroke-linejoin="round" stroke-miterlimit="10" fill="none"/></g><g clip-path="url(#clip12)"><path d="M406.499 973.5C406.499 979.575 401.575 984.499 395.5 984.499 389.425 984.499 384.5 979.575 384.5 973.5 384.5 967.425 389.425 962.5 395.5 962.5 401.575 962.5 406.499 967.425 406.499 973.5Z" stroke="#70AD47" stroke-width="3.4375" stroke-linejoin="round" stroke-miterlimit="10" fill="#70AD47"/><path d="M535.499 931.5C535.499 937.575 530.575 942.499 524.5 942.499 518.425 942.499 513.5 937.575 513.5 931.5 513.5 925.425 518.425 920.5 524.5 920.5 530.575 920.5 535.499 925.425 535.499 931.5Z" stroke="#70AD47" stroke-width="3.4375" stroke-linejoin="round" stroke-miterlimit="10" fill="#70AD47"/><path d="M663.499 931.5C663.499 937.575 658.575 942.499 652.5 942.499 646.425 942.499 641.5 937.575 641.5 931.5 641.5 925.425 646.425 920.5 652.5 920.5 658.575 920.5 663.499 925.425 663.499 931.5Z" stroke="#70AD47" stroke-width="3.4375" stroke-linejoin="round" stroke-miterlimit="10" fill="#70AD47"/><path d="M791.499 846.5C791.499 852.575 786.575 857.499 780.5 857.499 774.425 857.499 769.5 852.575 769.5 846.5 769.5 840.425 774.425 835.5 780.5 835.5 786.575 835.5 791.499 840.425 791.499 846.5Z" stroke="#70AD47" stroke-width="3.4375" stroke-linejoin="round" stroke-miterlimit="10" fill="#70AD47"/><path d="M919.499 803.5C919.499 809.575 914.575 814.499 908.5 814.499 902.425 814.499 897.5 809.575 897.5 803.5 897.5 797.425 902.425 792.5 908.5 792.5 914.575 792.5 919.499 797.425 919.499 803.5Z" stroke="#70AD47" stroke-width="3.4375" stroke-linejoin="round" stroke-miterlimit="10" fill="#70AD47"/><path d="M1047.5 803.5C1047.5 809.575 1042.57 814.499 1036.5 814.499 1030.42 814.499 1025.5 809.575 1025.5 803.5 1025.5 797.425 1030.42 792.5 1036.5 792.5 1042.57 792.5 1047.5 797.425 1047.5 803.5Z" stroke="#70AD47" stroke-width="3.4375" stroke-linejoin="round" stroke-miterlimit="10" fill="#70AD47"/><path d="M1176.5 761.5C1176.5 767.574 1171.57 772.499 1165.5 772.499 1159.42 772.499 1154.5 767.574 1154.5 761.5 1154.5 755.425 1159.42 750.5 1165.5 750.5 1171.57 750.5 1176.5 755.425 1176.5 761.5Z" stroke="#70AD47" stroke-width="3.4375" stroke-linejoin="round" stroke-miterlimit="10" fill="#70AD47"/><path d="M1304.5 675.5C1304.5 681.575 1299.57 686.499 1293.5 686.499 1287.42 686.499 1282.5 681.575 1282.5 675.5 1282.5 669.425 1287.42 664.5 1293.5 664.5 1299.57 664.5 1304.5 669.425 1304.5 675.5Z" stroke="#70AD47" stroke-width="3.4375" stroke-linejoin="round" stroke-miterlimit="10" fill="#70AD47"/><path d="M1432.5 633.5C1432.5 639.575 1427.57 644.499 1421.5 644.499 1415.42 644.499 1410.5 639.575 1410.5 633.5 1410.5 627.425 1415.42 622.5 1421.5 622.5 1427.57 622.5 1432.5 627.425 1432.5 633.5Z" stroke="#70AD47" stroke-width="3.4375" stroke-linejoin="round" stroke-miterlimit="10" fill="#70AD47"/><path d="M1560.5 633.5C1560.5 639.575 1555.57 644.499 1549.5 644.499 1543.42 644.499 1538.5 639.575 1538.5 633.5 1538.5 627.425 1543.42 622.5 1549.5 622.5 1555.57 622.5 1560.5 627.425 1560.5 633.5Z" stroke="#70AD47" stroke-width="3.4375" stroke-linejoin="round" stroke-miterlimit="10" fill="#70AD47"/></g><g clip-path="url(#clip13)"><text fill="#595959" font-family="Calibri,Calibri_MSFontService,sans-serif" font-weight="400" font-size="55" transform="matrix(1 0 0 1 188.685 1032)">0</text></g><g clip-path="url(#clip14)"><text fill="#595959" font-family="Calibri,Calibri_MSFontService,sans-serif" font-weight="400" font-size="55" transform="matrix(1 0 0 1 91.1975 947)">0.002</text></g><g clip-path="url(#clip15)"><text fill="#595959" font-family="Calibri,Calibri_MSFontService,sans-serif" font-weight="400" font-size="55" transform="matrix(1 0 0 1 91.1975 862)">0.004</text></g><g clip-path="url(#clip16)"><text fill="#595959" font-family="Calibri,Calibri_MSFontService,sans-serif" font-weight="400" font-size="55" transform="matrix(1 0 0 1 91.1975 776)">0.006</text></g><g clip-path="url(#clip17)"><text fill="#595959" font-family="Calibri,Calibri_MSFontService,sans-serif" font-weight="400" font-size="55" transform="matrix(1 0 0 1 91.1975 691)">0.008</text></g><g clip-path="url(#clip18)"><text fill="#595959" font-family="Calibri,Calibri_MSFontService,sans-serif" font-weight="400" font-size="55" transform="matrix(1 0 0 1 119.064 606)">0.01</text></g><g clip-path="url(#clip19)"><text fill="#595959" font-family="Calibri,Calibri_MSFontService,sans-serif" font-weight="400" font-size="55" transform="matrix(1 0 0 1 91.1975 521)">0.012</text></g><g clip-path="url(#clip20)"><text fill="#595959" font-family="Calibri,Calibri_MSFontService,sans-serif" font-weight="400" font-size="55" transform="matrix(1 0 0 1 91.1975 436)">0.014</text></g><g clip-path="url(#clip21)"><text fill="#595959" font-family="Calibri,Calibri_MSFontService,sans-serif" font-weight="400" font-size="55" transform="matrix(1 0 0 1 91.1975 351)">0.016</text></g><g clip-path="url(#clip22)"><text fill="#595959" font-family="Calibri,Calibri_MSFontService,sans-serif" font-weight="400" font-size="55" transform="matrix(1 0 0 1 91.1975 266)">0.018</text></g><g clip-path="url(#clip23)"><text fill="#595959" font-family="Calibri,Calibri_MSFontService,sans-serif" font-weight="400" font-size="55" transform="matrix(1 0 0 1 119.064 181)">0.02</text></g><g clip-path="url(#clip24)"><text fill="#595959" font-family="Calibri,Calibri_MSFontService,sans-serif" font-weight="400" font-size="55" transform="matrix(1 0 0 1 253.646 1103)">0</text></g><g clip-path="url(#clip25)"><text fill="#595959" font-family="Calibri,Calibri_MSFontService,sans-serif" font-weight="400" font-size="55" transform="matrix(1 0 0 1 468.298 1103)">2000</text></g><g clip-path="url(#clip26)"><text fill="#595959" font-family="Calibri,Calibri_MSFontService,sans-serif" font-weight="400" font-size="55" transform="matrix(1 0 0 1 724.75 1103)">4000</text></g><g clip-path="url(#clip27)"><text fill="#595959" font-family="Calibri,Calibri_MSFontService,sans-serif" font-weight="400" font-size="55" transform="matrix(1 0 0 1 981.202 1103)">6000</text></g><g clip-path="url(#clip28)"><text fill="#595959" font-family="Calibri,Calibri_MSFontService,sans-serif" font-weight="400" font-size="55" transform="matrix(1 0 0 1 1237.65 1103)">8000</text></g><g clip-path="url(#clip29)"><text fill="#595959" font-family="Calibri,Calibri_MSFontService,sans-serif" font-weight="400" font-size="55" transform="matrix(1 0 0 1 1480.17 1103)">10000</text></g><g clip-path="url(#clip30)"><text fill="#595959" font-family="Calibri,Calibri_MSFontService,sans-serif" font-weight="400" font-size="55" transform="matrix(1 0 0 1 1736.62 1103)">12000</text></g><g clip-path="url(#clip31)"><text fill="#595959" font-family="Calibri,Calibri_MSFontService,sans-serif" font-weight="400" font-size="55" transform="matrix(6.12323e-17 -1 1 6.12323e-17 62.2998 789)">Execution Time(s)</text></g><g clip-path="url(#clip32)"><text fill="#595959" font-family="Calibri,Calibri_MSFontService,sans-serif" font-weight="400" font-size="55" transform="matrix(1 0 0 1 937.81 1161)">Data size</text></g><g clip-path="url(#clip33)"><text fill="#595959" font-family="Calibri,Calibri_MSFontService,sans-serif" font-weight="400" font-size="73" transform="matrix(1 0 0 1 537.327 104)">4 kinds of Sorting Algorithm</text></g><g clip-path="url(#clip34)"><path d="M315.5 225.5 403.5 225.5" stroke="#A5A5A5" stroke-width="6.875" stroke-linecap="round" stroke-linejoin="round" stroke-miterlimit="10" fill="none" fill-rule="evenodd"/></g><g clip-path="url(#clip35)"><path d="M370 225C370 231.075 365.075 235.999 359 235.999 352.925 235.999 348 231.075 348 225 348 218.925 352.925 214 359 214 365.075 214 370 218.925 370 225Z" stroke="#A5A5A5" stroke-width="3.4375" stroke-linejoin="round" stroke-miterlimit="10" fill="#A5A5A5"/></g><g clip-path="url(#clip36)"><text fill="#595959" font-family="Calibri,Calibri_MSFontService,sans-serif" font-weight="400" font-size="55" transform="matrix(1 0 0 1 412.431 241)">Quick sort</text></g><g clip-path="url(#clip37)"><path d="M315.5 360.5 403.5 360.5" stroke="#5B9BD5" stroke-width="6.875" stroke-linecap="round" stroke-linejoin="round" stroke-miterlimit="10" fill="none" fill-rule="evenodd"/></g><g clip-path="url(#clip38)"><path d="M370 360C370 366.075 365.075 371 359 371 352.925 371 348 366.075 348 360 348 353.925 352.925 349 359 349 365.075 349 370 353.925 370 360Z" stroke="#5B9BD5" stroke-width="3.4375" stroke-linejoin="round" stroke-miterlimit="10" fill="#5B9BD5"/></g><g clip-path="url(#clip39)"><text fill="#595959" font-family="Calibri,Calibri_MSFontService,sans-serif" font-weight="400" font-size="55" transform="matrix(1 0 0 1 412.431 376)">Merge sort</text></g><g clip-path="url(#clip40)"><path d="M315.5 495.5 403.5 495.5" stroke="#FFC000" stroke-width="6.875" stroke-linecap="round" stroke-linejoin="round" stroke-miterlimit="10" fill="none" fill-rule="evenodd"/></g><g clip-path="url(#clip41)"><path d="M370 495.5C370 501.31 365.075 506.021 359 506.021 352.925 506.021 348 501.31 348 495.5 348 489.689 352.925 484.978 359 484.978 365.075 484.978 370 489.689 370 495.5Z" stroke="#FFC000" stroke-width="3.4375" stroke-linejoin="round" stroke-miterlimit="10" fill="#FFC000"/></g><g clip-path="url(#clip42)"><text fill="#595959" font-family="Calibri,Calibri_MSFontService,sans-serif" font-weight="400" font-size="55" transform="matrix(1 0 0 1 412.431 511)">Heap sort</text></g><g clip-path="url(#clip43)"><path d="M315.5 630.5 403.5 630.5" stroke="#70AD47" stroke-width="6.875" stroke-linecap="round" stroke-linejoin="round" stroke-miterlimit="10" fill="none" fill-rule="evenodd"/></g><g clip-path="url(#clip44)"><path d="M370 630C370 636.075 365.075 640.999 359 640.999 352.925 640.999 348 636.075 348 630 348 623.924 352.925 619 359 619 365.075 619 370 623.924 370 630Z" stroke="#70AD47" stroke-width="3.4375" stroke-linejoin="round" stroke-miterlimit="10" fill="#70AD47"/></g><g clip-path="url(#clip45)"><text fill="#595959" font-family="Calibri,Calibri_MSFontService,sans-serif" font-weight="400" font-size="55" transform="matrix(1 0 0 1 412.431 646)">Radix Sort</text></g><rect x="0.499836" y="0.499836" width="1903" height="1183" stroke="#D9D9D9" stroke-width="3.4375" stroke-linejoin="round" stroke-miterlimit="10" fill="none"/></g></svg>