<svg width="1906" height="1129" xmlns="http://www.w3.org/2000/svg" xmlns:xlink="http://www.w3.org/1999/xlink" overflow="hidden"><defs><clipPath id="clip0"><rect x="-1" y="-1" width="1906" height="1129"/></clipPath><clipPath id="clip1"><rect x="0" y="0" width="1903" height="1126"/></clipPath><clipPath id="clip2"><rect x="0" y="0" width="1903" height="1126"/></clipPath><clipPath id="clip3"><rect x="0" y="0" width="1903" height="1126"/></clipPath><clipPath id="clip4"><rect x="0" y="0" width="1903" height="1126"/></clipPath><clipPath id="clip5"><rect x="210" y="157" width="1599" height="835"/></clipPath><clipPath id="clip6"><rect x="0" y="0" width="1903" height="1126"/></clipPath><clipPath id="clip7"><rect x="210" y="157" width="1599" height="835"/></clipPath><clipPath id="clip8"><rect x="0" y="0" width="1903" height="1126"/></clipPath><clipPath id="clip9"><rect x="210" y="157" width="1599" height="835"/></clipPath><clipPath id="clip10"><rect x="0" y="0" width="1903" height="1126"/></clipPath><clipPath id="clip11"><rect x="210" y="157" width="1599" height="835"/></clipPath><clipPath id="clip12"><rect x="0" y="0" width="1903" height="1126"/></clipPath><clipPath id="clip13"><rect x="210" y="157" width="1599" height="835"/></clipPath><clipPath id="clip14"><rect x="0" y="0" width="1903" height="1126"/></clipPath><clipPath id="clip15"><rect x="210" y="157" width="1599" height="835"/></clipPath><clipPath id="clip16"><rect x="0" y="0" width="1903" height="1126"/></clipPath><clipPath id="clip17"><rect x="0" y="0" width="1903" height="1126"/></clipPath><clipPath id="clip18"><rect x="0" y="0" width="1903" height="1126"/></clipPath><clipPath id="clip19"><rect x="0" y="0" width="1903" height="1126"/></clipPath><clipPath id="clip20"><rect x="0" y="0" width="1903" height="1126"/></clipPath><clipPath id="clip21"><rect x="0" y="0" width="1903" height="1126"/></clipPath><clipPath id="clip22"><rect x="0" y="0" width="1903" height="1126"/></clipPath><clipPath id="clip23"><rect x="0" y="0" width="1903" height="1126"/></clipPath><clipPath id="clip24"><rect x="0" y="0" width="1903" height="1126"/></clipPath><clipPath id="clip25"><rect x="0" y="0" width="1903" height="1126"/></clipPath><clipPath id="clip26"><rect x="0" y="0" width="1903" height="1126"/></clipPath><clipPath id="clip27"><rect x="0" y="0" width="1903" height="1126"/></clipPath><clipPath id="clip28"><rect x="0" y="0" width="1903" height="1126"/></clipPath><clipPath id="clip29"><rect x="0" y="0" width="1903" height="1126"/></clipPath><clipPath id="clip30"><rect x="0" y="0" width="1903" height="1126"/></clipPath><clipPath id="clip31"><rect x="0" y="0" width="1903" height="1126"/></clipPath><clipPath id="clip32"><rect x="0" y="0" width="1903" height="1126"/></clipPath><clipPath id="clip33"><rect x="0" y="0" width="1903" height="1126"/></clipPath><clipPath id="clip34"><rect x="0" y="0" width="1903" height="1126"/></clipPath><clipPath id="clip35"><rect x="0" y="0" width="1903" height="1126"/></clipPath><clipPath id="clip36"><rect x="0" y="0" width="1903" height="1126"/></clipPath><clipPath id="clip37"><rect x="0" y="0" width="1903" height="1126"/></clipPath><clipPath id="clip38"><rect x="0" y="0" width="1903" height="1126"/></clipPath><clipPath id="clip39"><rect x="0" y="0" width="1903" height="1126"/></clipPath><clipPath id="clip40"><rect x="0" y="0" width="1903" height="1126"/></clipPath><clipPath id="clip41"><rect x="0" y="0" width="1903" height="1126"/></clipPath><clipPath id="clip42"><rect x="0" y="0" width="1903" height="1126"/></clipPath><clipPath id="clip43"><rect x="0" y="0" width="1903" height="1126"/></clipPath><clipPath id="clip44"><rect x="0" y="0" width="1903" height="1126"/></clipPath><clipPath id="clip45"><rect x="0" y="0" width="1903" height="1126"/></clipPath><clipPath id="clip46"><rect x="0" y="0" width="1903" height="1126"/></clipPath><clipPath id="clip47"><rect x="0" y="0" width="1903" height="1126"/></clipPath><clipPath id="clip48"><rect x="0" y="0" width="1903" height="1126"/></clipPath><clipPath id="clip49"><rect x="0" y="0" width="1903" height="1126"/></clipPath><clipPath id="clip50"><rect x="0" y="0" width="1903" height="1126"/></clipPath><clipPath id="clip51"><rect x="0" y="0" width="1903" height="1126"/></clipPath><clipPath id="clip52"><rect x="0" y="0" width="1903" height="1126"/></clipPath></defs><g clip-path="url(#clip0)" transform="translate(1 1)"><rect x="0" y="0" width="1903" height="1126" fill="#FFFFFF"/><g clip-path="url(#clip1)"><path d="M210.5 870.529 1806.5 870.529M210.5 751.525 1806.5 751.525M210.5 632.521 1806.5 632.521M210.5 514.517 1806.5 514.517M210.5 395.513 1806.5 395.513M210.5 276.509 1806.5 276.509M210.5 157.5 1806.5 157.5" stroke="#D9D9D9" stroke-width="3.4375" stroke-linejoin="round" stroke-miterlimit="10" fill="none"/></g><g clip-path="url(#clip2)"><path d="M476.516 157.5 476.516 989.5M742.525 157.5 742.525 989.5M1008.53 157.5 1008.53 989.5M1274.54 157.5 1274.54 989.5M1540.55 157.5 1540.55 989.5M1806.5 157.5 1806.5 989.5" stroke="#D9D9D9" stroke-width="3.4375" stroke-linejoin="round" stroke-miterlimit="10" fill="none"/></g><g clip-path="url(#clip3)"><path d="M0 0 0.000360892 832" stroke="#BFBFBF" stroke-width="3.4375" stroke-linejoin="round" stroke-miterlimit="10" fill="none" fill-rule="evenodd" transform="matrix(1 0 0 -1 210.5 989.5)"/></g><g clip-path="url(#clip4)"><path d="M210.5 989.5 1806.5 989.501" stroke="#BFBFBF" stroke-width="3.4375" stroke-linejoin="round" stroke-miterlimit="10" fill="none" fill-rule="evenodd"/></g><g clip-path="url(#clip5)"><path d="M343.5 984.5C387.833 978.995 432.166 975.371 476.5 967.986 520.833 960.599 565.166 950.896 609.5 940.184 653.833 929.471 698.166 918.224 742.5 903.709 786.833 889.195 831.166 870.997 875.5 853.096 919.833 835.196 964.166 816.899 1008.5 796.306 1052.83 775.712 1097.17 754.049 1141.5 729.535 1185.83 705.02 1230.17 678.228 1274.5 649.219 1318.83 620.21 1363.17 588.765 1407.5 555.479 1451.83 522.192 1496.17 484.826 1540.5 449.5" stroke="#4472C4" stroke-width="6.875" stroke-linecap="round" stroke-linejoin="round" stroke-miterlimit="10" fill="none"/></g><g clip-path="url(#clip6)"><path d="M354.499 984.5C354.499 990.575 349.574 995.499 343.5 995.499 337.425 995.499 332.5 990.575 332.5 984.5 332.5 978.425 337.425 973.5 343.5 973.5 349.574 973.5 354.499 978.425 354.499 984.5Z" stroke="#4472C4" stroke-width="3.4375" stroke-linejoin="round" stroke-miterlimit="10" fill="#4472C4"/><path d="M487.499 967.5C487.499 973.575 482.574 978.499 476.5 978.499 470.425 978.499 465.5 973.575 465.5 967.5 465.5 961.425 470.425 956.5 476.5 956.5 482.574 956.5 487.499 961.425 487.499 967.5Z" stroke="#4472C4" stroke-width="3.4375" stroke-linejoin="round" stroke-miterlimit="10" fill="#4472C4"/><path d="M620.499 939.5C620.499 945.575 615.575 950.499 609.5 950.499 603.425 950.499 598.5 945.575 598.5 939.5 598.5 933.425 603.425 928.5 609.5 928.5 615.575 928.5 620.499 933.425 620.499 939.5Z" stroke="#4472C4" stroke-width="3.4375" stroke-linejoin="round" stroke-miterlimit="10" fill="#4472C4"/><path d="M753.499 903.5C753.499 909.574 748.575 914.499 742.5 914.499 736.425 914.499 731.5 909.574 731.5 903.5 731.5 897.425 736.425 892.5 742.5 892.5 748.575 892.5 753.499 897.425 753.499 903.5Z" stroke="#4472C4" stroke-width="3.4375" stroke-linejoin="round" stroke-miterlimit="10" fill="#4472C4"/><path d="M886.499 852.5C886.499 858.575 881.575 863.499 875.5 863.499 869.425 863.499 864.5 858.575 864.5 852.5 864.5 846.425 869.425 841.5 875.5 841.5 881.575 841.5 886.499 846.425 886.499 852.5Z" stroke="#4472C4" stroke-width="3.4375" stroke-linejoin="round" stroke-miterlimit="10" fill="#4472C4"/><path d="M1019.5 795.5C1019.5 801.575 1014.57 806.499 1008.5 806.499 1002.42 806.499 997.5 801.575 997.5 795.5 997.5 789.425 1002.42 784.5 1008.5 784.5 1014.57 784.5 1019.5 789.425 1019.5 795.5Z" stroke="#4472C4" stroke-width="3.4375" stroke-linejoin="round" stroke-miterlimit="10" fill="#4472C4"/><path d="M1152.5 729.5C1152.5 735.575 1147.57 740.499 1141.5 740.499 1135.42 740.499 1130.5 735.575 1130.5 729.5 1130.5 723.425 1135.42 718.5 1141.5 718.5 1147.57 718.5 1152.5 723.425 1152.5 729.5Z" stroke="#4472C4" stroke-width="3.4375" stroke-linejoin="round" stroke-miterlimit="10" fill="#4472C4"/><path d="M1285.5 648.5C1285.5 654.575 1280.57 659.499 1274.5 659.499 1268.42 659.499 1263.5 654.575 1263.5 648.5 1263.5 642.425 1268.42 637.5 1274.5 637.5 1280.57 637.5 1285.5 642.425 1285.5 648.5Z" stroke="#4472C4" stroke-width="3.4375" stroke-linejoin="round" stroke-miterlimit="10" fill="#4472C4"/><path d="M1418.5 555.5C1418.5 561.575 1413.57 566.499 1407.5 566.499 1401.42 566.499 1396.5 561.575 1396.5 555.5 1396.5 549.425 1401.42 544.5 1407.5 544.5 1413.57 544.5 1418.5 549.425 1418.5 555.5Z" stroke="#4472C4" stroke-width="3.4375" stroke-linejoin="round" stroke-miterlimit="10" fill="#4472C4"/><path d="M1551.5 449.5C1551.5 455.575 1546.57 460.499 1540.5 460.499 1534.42 460.499 1529.5 455.575 1529.5 449.5 1529.5 443.425 1534.42 438.5 1540.5 438.5 1546.57 438.5 1551.5 443.425 1551.5 449.5Z" stroke="#4472C4" stroke-width="3.4375" stroke-linejoin="round" stroke-miterlimit="10" fill="#4472C4"/></g><g clip-path="url(#clip7)"><path d="M343.5 981.5C387.833 973.61 432.166 968.317 476.5 957.83 520.833 947.344 565.166 934.577 609.5 918.58 653.833 902.582 698.166 883.135 742.5 861.844 786.833 840.553 831.166 816.943 875.5 790.836 919.833 764.728 964.166 736.737 1008.5 705.198 1052.83 673.658 1097.17 638.927 1141.5 601.599 1185.83 564.271 1230.17 522.423 1274.5 481.23 1318.83 440.036 1363.17 400.725 1407.5 354.437 1451.83 308.149 1496.17 253.812 1540.5 203.5" stroke="#ED7D31" stroke-width="6.875" stroke-linecap="round" stroke-linejoin="round" stroke-miterlimit="10" fill="none"/></g><g clip-path="url(#clip8)"><path d="M354.499 981.5C354.499 987.574 349.574 992.499 343.5 992.499 337.425 992.499 332.5 987.574 332.5 981.5 332.5 975.425 337.425 970.5 343.5 970.5 349.574 970.5 354.499 975.425 354.499 981.5Z" stroke="#ED7D31" stroke-width="3.4375" stroke-linejoin="round" stroke-miterlimit="10" fill="#ED7D31"/><path d="M487.499 957.5C487.499 963.575 482.574 968.499 476.5 968.499 470.425 968.499 465.5 963.575 465.5 957.5 465.5 951.425 470.425 946.5 476.5 946.5 482.574 946.5 487.499 951.425 487.499 957.5Z" stroke="#ED7D31" stroke-width="3.4375" stroke-linejoin="round" stroke-miterlimit="10" fill="#ED7D31"/><path d="M620.499 918.5C620.499 924.575 615.575 929.499 609.5 929.499 603.425 929.499 598.5 924.575 598.5 918.5 598.5 912.425 603.425 907.5 609.5 907.5 615.575 907.5 620.499 912.425 620.499 918.5Z" stroke="#ED7D31" stroke-width="3.4375" stroke-linejoin="round" stroke-miterlimit="10" fill="#ED7D31"/><path d="M753.499 861.5C753.499 867.575 748.575 872.499 742.5 872.499 736.425 872.499 731.5 867.575 731.5 861.5 731.5 855.425 736.425 850.5 742.5 850.5 748.575 850.5 753.499 855.425 753.499 861.5Z" stroke="#ED7D31" stroke-width="3.4375" stroke-linejoin="round" stroke-miterlimit="10" fill="#ED7D31"/><path d="M886.499 790.5C886.499 796.575 881.575 801.499 875.5 801.499 869.425 801.499 864.5 796.575 864.5 790.5 864.5 784.425 869.425 779.5 875.5 779.5 881.575 779.5 886.499 784.425 886.499 790.5Z" stroke="#ED7D31" stroke-width="3.4375" stroke-linejoin="round" stroke-miterlimit="10" fill="#ED7D31"/><path d="M1019.5 705.5C1019.5 711.574 1014.57 716.499 1008.5 716.499 1002.42 716.499 997.5 711.574 997.5 705.5 997.5 699.425 1002.42 694.5 1008.5 694.5 1014.57 694.5 1019.5 699.425 1019.5 705.5Z" stroke="#ED7D31" stroke-width="3.4375" stroke-linejoin="round" stroke-miterlimit="10" fill="#ED7D31"/><path d="M1152.5 601.5C1152.5 607.575 1147.57 612.499 1141.5 612.499 1135.42 612.499 1130.5 607.575 1130.5 601.5 1130.5 595.425 1135.42 590.5 1141.5 590.5 1147.57 590.5 1152.5 595.425 1152.5 601.5Z" stroke="#ED7D31" stroke-width="3.4375" stroke-linejoin="round" stroke-miterlimit="10" fill="#ED7D31"/><path d="M1285.5 481.5C1285.5 487.575 1280.57 492.499 1274.5 492.499 1268.42 492.499 1263.5 487.575 1263.5 481.5 1263.5 475.425 1268.42 470.5 1274.5 470.5 1280.57 470.5 1285.5 475.425 1285.5 481.5Z" stroke="#ED7D31" stroke-width="3.4375" stroke-linejoin="round" stroke-miterlimit="10" fill="#ED7D31"/><path d="M1418.5 354.5C1418.5 360.574 1413.57 365.499 1407.5 365.499 1401.42 365.499 1396.5 360.574 1396.5 354.5 1396.5 348.425 1401.42 343.5 1407.5 343.5 1413.57 343.5 1418.5 348.425 1418.5 354.5Z" stroke="#ED7D31" stroke-width="3.4375" stroke-linejoin="round" stroke-miterlimit="10" fill="#ED7D31"/><path d="M1551.5 203.5C1551.5 209.575 1546.57 214.499 1540.5 214.499 1534.42 214.499 1529.5 209.575 1529.5 203.5 1529.5 197.425 1534.42 192.5 1540.5 192.5 1546.57 192.5 1551.5 197.425 1551.5 203.5Z" stroke="#ED7D31" stroke-width="3.4375" stroke-linejoin="round" stroke-miterlimit="10" fill="#ED7D31"/></g><g clip-path="url(#clip9)"><path d="M343.5 989.5C387.833 989.439 432.166 989.348 476.5 989.318 520.833 989.288 565.166 989.333 609.5 989.318 653.833 989.303 698.166 989.258 742.5 989.227 786.833 989.197 831.166 989.166 875.5 989.136 919.833 989.106 964.166 989.091 1008.5 989.046 1052.83 989 1097.17 988.894 1141.5 988.864 1185.83 988.833 1230.17 988.879 1274.5 988.864 1318.83 988.848 1363.17 988.833 1407.5 988.773 1451.83 988.712 1496.17 988.591 1540.5 988.5" stroke="#A5A5A5" stroke-width="6.875" stroke-linecap="round" stroke-linejoin="round" stroke-miterlimit="10" fill="none"/></g><g clip-path="url(#clip10)"><path d="M354.499 989.5C354.499 995.575 349.574 1000.5 343.5 1000.5 337.425 1000.5 332.5 995.575 332.5 989.5 332.5 983.425 337.425 978.5 343.5 978.5 349.574 978.5 354.499 983.425 354.499 989.5Z" stroke="#A5A5A5" stroke-width="3.4375" stroke-linejoin="round" stroke-miterlimit="10" fill="#A5A5A5"/><path d="M487.499 989.5C487.499 995.575 482.574 1000.5 476.5 1000.5 470.425 1000.5 465.5 995.575 465.5 989.5 465.5 983.425 470.425 978.5 476.5 978.5 482.574 978.5 487.499 983.425 487.499 989.5Z" stroke="#A5A5A5" stroke-width="3.4375" stroke-linejoin="round" stroke-miterlimit="10" fill="#A5A5A5"/><path d="M620.499 989.5C620.499 995.575 615.575 1000.5 609.5 1000.5 603.425 1000.5 598.5 995.575 598.5 989.5 598.5 983.425 603.425 978.5 609.5 978.5 615.575 978.5 620.499 983.425 620.499 989.5Z" stroke="#A5A5A5" stroke-width="3.4375" stroke-linejoin="round" stroke-miterlimit="10" fill="#A5A5A5"/><path d="M753.499 989.5C753.499 995.575 748.575 1000.5 742.5 1000.5 736.425 1000.5 731.5 995.575 731.5 989.5 731.5 983.425 736.425 978.5 742.5 978.5 748.575 978.5 753.499 983.425 753.499 989.5Z" stroke="#A5A5A5" stroke-width="3.4375" stroke-linejoin="round" stroke-miterlimit="10" fill="#A5A5A5"/><path d="M886.499 988.5C886.499 994.575 881.575 999.499 875.5 999.499 869.425 999.499 864.5 994.575 864.5 988.5 864.5 982.425 869.425 977.5 875.5 977.5 881.575 977.5 886.499 982.425 886.499 988.5Z" stroke="#A5A5A5" stroke-width="3.4375" stroke-linejoin="round" stroke-miterlimit="10" fill="#A5A5A5"/><path d="M1019.5 988.5C1019.5 994.575 1014.57 999.499 1008.5 999.499 1002.42 999.499 997.5 994.575 997.5 988.5 997.5 982.425 1002.42 977.5 1008.5 977.5 1014.57 977.5 1019.5 982.425 1019.5 988.5Z" stroke="#A5A5A5" stroke-width="3.4375" stroke-linejoin="round" stroke-miterlimit="10" fill="#A5A5A5"/><path d="M1152.5 988.5C1152.5 994.575 1147.57 999.499 1141.5 999.499 1135.42 999.499 1130.5 994.575 1130.5 988.5 1130.5 982.425 1135.42 977.5 1141.5 977.5 1147.57 977.5 1152.5 982.425 1152.5 988.5Z" stroke="#A5A5A5" stroke-width="3.4375" stroke-linejoin="round" stroke-miterlimit="10" fill="#A5A5A5"/><path d="M1285.5 988.5C1285.5 994.575 1280.57 999.499 1274.5 999.499 1268.42 999.499 1263.5 994.575 1263.5 988.5 1263.5 982.425 1268.42 977.5 1274.5 977.5 1280.57 977.5 1285.5 982.425 1285.5 988.5Z" stroke="#A5A5A5" stroke-width="3.4375" stroke-linejoin="round" stroke-miterlimit="10" fill="#A5A5A5"/><path d="M1418.5 988.5C1418.5 994.575 1413.57 999.499 1407.5 999.499 1401.42 999.499 1396.5 994.575 1396.5 988.5 1396.5 982.425 1401.42 977.5 1407.5 977.5 1413.57 977.5 1418.5 982.425 1418.5 988.5Z" stroke="#A5A5A5" stroke-width="3.4375" stroke-linejoin="round" stroke-miterlimit="10" fill="#A5A5A5"/><path d="M1551.5 988.5C1551.5 994.575 1546.57 999.499 1540.5 999.499 1534.42 999.499 1529.5 994.575 1529.5 988.5 1529.5 982.425 1534.42 977.5 1540.5 977.5 1546.57 977.5 1551.5 982.425 1551.5 988.5Z" stroke="#A5A5A5" stroke-width="3.4375" stroke-linejoin="round" stroke-miterlimit="10" fill="#A5A5A5"/></g><g clip-path="url(#clip11)"><path d="M343.5 989.5C387.833 989.397 432.166 989.243 476.5 989.192 520.833 989.141 565.166 989.243 609.5 989.192 653.833 989.141 698.166 988.987 742.5 988.885 786.833 988.782 831.166 988.628 875.5 988.577 919.833 988.526 964.166 988.654 1008.5 988.577 1052.83 988.5 1097.17 988.192 1141.5 988.116 1185.83 988.039 1230.17 988.167 1274.5 988.116 1318.83 988.064 1363.17 987.91 1407.5 987.808 1451.83 987.705 1496.17 987.602 1540.5 987.5" stroke="#5B9BD5" stroke-width="6.875" stroke-linecap="round" stroke-linejoin="round" stroke-miterlimit="10" fill="none"/></g><g clip-path="url(#clip12)"><path d="M354.499 989.5C354.499 995.575 349.574 1000.5 343.5 1000.5 337.425 1000.5 332.5 995.575 332.5 989.5 332.5 983.425 337.425 978.5 343.5 978.5 349.574 978.5 354.499 983.425 354.499 989.5Z" stroke="#5B9BD5" stroke-width="3.4375" stroke-linejoin="round" stroke-miterlimit="10" fill="#5B9BD5"/><path d="M487.499 989.5C487.499 995.575 482.574 1000.5 476.5 1000.5 470.425 1000.5 465.5 995.575 465.5 989.5 465.5 983.425 470.425 978.5 476.5 978.5 482.574 978.5 487.499 983.425 487.499 989.5Z" stroke="#5B9BD5" stroke-width="3.4375" stroke-linejoin="round" stroke-miterlimit="10" fill="#5B9BD5"/><path d="M620.499 989.5C620.499 995.575 615.575 1000.5 609.5 1000.5 603.425 1000.5 598.5 995.575 598.5 989.5 598.5 983.425 603.425 978.5 609.5 978.5 615.575 978.5 620.499 983.425 620.499 989.5Z" stroke="#5B9BD5" stroke-width="3.4375" stroke-linejoin="round" stroke-miterlimit="10" fill="#5B9BD5"/><path d="M753.499 988.5C753.499 994.575 748.575 999.499 742.5 999.499 736.425 999.499 731.5 994.575 731.5 988.5 731.5 982.425 736.425 977.5 742.5 977.5 748.575 977.5 753.499 982.425 753.499 988.5Z" stroke="#5B9BD5" stroke-width="3.4375" stroke-linejoin="round" stroke-miterlimit="10" fill="#5B9BD5"/><path d="M886.499 988.5C886.499 994.575 881.575 999.499 875.5 999.499 869.425 999.499 864.5 994.575 864.5 988.5 864.5 982.425 869.425 977.5 875.5 977.5 881.575 977.5 886.499 982.425 886.499 988.5Z" stroke="#5B9BD5" stroke-width="3.4375" stroke-linejoin="round" stroke-miterlimit="10" fill="#5B9BD5"/><path d="M1019.5 988.5C1019.5 994.575 1014.57 999.499 1008.5 999.499 1002.42 999.499 997.5 994.575 997.5 988.5 997.5 982.425 1002.42 977.5 1008.5 977.5 1014.57 977.5 1019.5 982.425 1019.5 988.5Z" stroke="#5B9BD5" stroke-width="3.4375" stroke-linejoin="round" stroke-miterlimit="10" fill="#5B9BD5"/><path d="M1152.5 988.5C1152.5 994.575 1147.57 999.499 1141.5 999.499 1135.42 999.499 1130.5 994.575 1130.5 988.5 1130.5 982.425 1135.42 977.5 1141.5 977.5 1147.57 977.5 1152.5 982.425 1152.5 988.5Z" stroke="#5B9BD5" stroke-width="3.4375" stroke-linejoin="round" stroke-miterlimit="10" fill="#5B9BD5"/><path d="M1285.5 988.5C1285.5 994.575 1280.57 999.499 1274.5 999.499 1268.42 999.499 1263.5 994.575 1263.5 988.5 1263.5 982.425 1268.42 977.5 1274.5 977.5 1280.57 977.5 1285.5 982.425 1285.5 988.5Z" stroke="#5B9BD5" stroke-width="3.4375" stroke-linejoin="round" stroke-miterlimit="10" fill="#5B9BD5"/><path d="M1418.5 988.5C1418.5 994.575 1413.57 999.499 1407.5 999.499 1401.42 999.499 1396.5 994.575 1396.5 988.5 1396.5 982.425 1401.42 977.5 1407.5 977.5 1413.57 977.5 1418.5 982.425 1418.5 988.5Z" stroke="#5B9BD5" stroke-width="3.4375" stroke-linejoin="round" stroke-miterlimit="10" fill="#5B9BD5"/><path d="M1551.5 987.5C1551.5 993.575 1546.57 998.499 1540.5 998.499 1534.42 998.499 1529.5 993.575 1529.5 987.5 1529.5 981.425 1534.42 976.5 1540.5 976.5 1546.57 976.5 1551.5 981.425 1551.5 987.5Z" stroke="#5B9BD5" stroke-width="3.4375" stroke-linejoin="round" stroke-miterlimit="10" fill="#5B9BD5"/></g><g clip-path="url(#clip13)"><path d="M343.5 989.5C387.833 989.458 432.166 989.438 476.5 989.375 520.833 989.313 565.166 989.208 609.5 989.125 653.833 989.042 698.166 988.958 742.5 988.875 786.833 988.792 831.166 988.688 875.5 988.625 919.833 988.563 964.166 988.563 1008.5 988.5 1052.83 988.438 1097.17 988.354 1141.5 988.25 1185.83 988.146 1230.17 987.979 1274.5 987.875 1318.83 987.771 1363.17 987.687 1407.5 987.625 1451.83 987.562 1496.17 987.542 1540.5 987.5" stroke="#FFC000" stroke-width="6.875" stroke-linecap="round" stroke-linejoin="round" stroke-miterlimit="10" fill="none"/></g><g clip-path="url(#clip14)"><path d="M354.499 989.5C354.499 995.575 349.574 1000.5 343.5 1000.5 337.425 1000.5 332.5 995.575 332.5 989.5 332.5 983.425 337.425 978.5 343.5 978.5 349.574 978.5 354.499 983.425 354.499 989.5Z" stroke="#FFC000" stroke-width="3.4375" stroke-linejoin="round" stroke-miterlimit="10" fill="#FFC000"/><path d="M487.499 989.5C487.499 995.575 482.574 1000.5 476.5 1000.5 470.425 1000.5 465.5 995.575 465.5 989.5 465.5 983.425 470.425 978.5 476.5 978.5 482.574 978.5 487.499 983.425 487.499 989.5Z" stroke="#FFC000" stroke-width="3.4375" stroke-linejoin="round" stroke-miterlimit="10" fill="#FFC000"/><path d="M620.499 988.5C620.499 994.575 615.575 999.499 609.5 999.499 603.425 999.499 598.5 994.575 598.5 988.5 598.5 982.425 603.425 977.5 609.5 977.5 615.575 977.5 620.499 982.425 620.499 988.5Z" stroke="#FFC000" stroke-width="3.4375" stroke-linejoin="round" stroke-miterlimit="10" fill="#FFC000"/><path d="M753.499 988.5C753.499 994.575 748.575 999.499 742.5 999.499 736.425 999.499 731.5 994.575 731.5 988.5 731.5 982.425 736.425 977.5 742.5 977.5 748.575 977.5 753.499 982.425 753.499 988.5Z" stroke="#FFC000" stroke-width="3.4375" stroke-linejoin="round" stroke-miterlimit="10" fill="#FFC000"/><path d="M886.499 988.5C886.499 994.575 881.575 999.499 875.5 999.499 869.425 999.499 864.5 994.575 864.5 988.5 864.5 982.425 869.425 977.5 875.5 977.5 881.575 977.5 886.499 982.425 886.499 988.5Z" stroke="#FFC000" stroke-width="3.4375" stroke-linejoin="round" stroke-miterlimit="10" fill="#FFC000"/><path d="M1019.5 988.5C1019.5 994.575 1014.57 999.499 1008.5 999.499 1002.42 999.499 997.5 994.575 997.5 988.5 997.5 982.425 1002.42 977.5 1008.5 977.5 1014.57 977.5 1019.5 982.425 1019.5 988.5Z" stroke="#FFC000" stroke-width="3.4375" stroke-linejoin="round" stroke-miterlimit="10" fill="#FFC000"/><path d="M1152.5 988.5C1152.5 994.575 1147.57 999.499 1141.5 999.499 1135.42 999.499 1130.5 994.575 1130.5 988.5 1130.5 982.425 1135.42 977.5 1141.5 977.5 1147.57 977.5 1152.5 982.425 1152.5 988.5Z" stroke="#FFC000" stroke-width="3.4375" stroke-linejoin="round" stroke-miterlimit="10" fill="#FFC000"/><path d="M1285.5 987.5C1285.5 993.575 1280.57 998.499 1274.5 998.499 1268.42 998.499 1263.5 993.575 1263.5 987.5 1263.5 981.425 1268.42 976.5 1274.5 976.5 1280.57 976.5 1285.5 981.425 1285.5 987.5Z" stroke="#FFC000" stroke-width="3.4375" stroke-linejoin="round" stroke-miterlimit="10" fill="#FFC000"/><path d="M1418.5 987.5C1418.5 993.575 1413.57 998.499 1407.5 998.499 1401.42 998.499 1396.5 993.575 1396.5 987.5 1396.5 981.425 1401.42 976.5 1407.5 976.5 1413.57 976.5 1418.5 981.425 1418.5 987.5Z" stroke="#FFC000" stroke-width="3.4375" stroke-linejoin="round" stroke-miterlimit="10" fill="#FFC000"/><path d="M1551.5 987.5C1551.5 993.575 1546.57 998.499 1540.5 998.499 1534.42 998.499 1529.5 993.575 1529.5 987.5 1529.5 981.425 1534.42 976.5 1540.5 976.5 1546.57 976.5 1551.5 981.425 1551.5 987.5Z" stroke="#FFC000" stroke-width="3.4375" stroke-linejoin="round" stroke-miterlimit="10" fill="#FFC000"/></g><g clip-path="url(#clip15)"><path d="M343.5 989.5C387.833 989.459 432.166 989.398 476.5 989.378 520.833 989.357 565.166 989.418 609.5 989.378 653.833 989.337 698.166 989.194 742.5 989.133 786.833 989.072 831.166 989.031 875.5 989.01 919.833 988.99 964.166 989.03 1008.5 989.01 1052.83 988.99 1097.17 988.949 1141.5 988.888 1185.83 988.827 1230.17 988.704 1274.5 988.643 1318.83 988.582 1363.17 988.541 1407.5 988.521 1451.83 988.5 1496.17 988.521 1540.5 988.521" stroke="#70AD47" stroke-width="6.875" stroke-linecap="round" stroke-linejoin="round" stroke-miterlimit="10" fill="none"/></g><g clip-path="url(#clip16)"><path d="M354.499 989.5C354.499 995.575 349.574 1000.5 343.5 1000.5 337.425 1000.5 332.5 995.575 332.5 989.5 332.5 983.425 337.425 978.5 343.5 978.5 349.574 978.5 354.499 983.425 354.499 989.5Z" stroke="#70AD47" stroke-width="3.4375" stroke-linejoin="round" stroke-miterlimit="10" fill="#70AD47"/><path d="M487.499 989.5C487.499 995.575 482.574 1000.5 476.5 1000.5 470.425 1000.5 465.5 995.575 465.5 989.5 465.5 983.425 470.425 978.5 476.5 978.5 482.574 978.5 487.499 983.425 487.499 989.5Z" stroke="#70AD47" stroke-width="3.4375" stroke-linejoin="round" stroke-miterlimit="10" fill="#70AD47"/><path d="M620.499 989.5C620.499 995.575 615.575 1000.5 609.5 1000.5 603.425 1000.5 598.5 995.575 598.5 989.5 598.5 983.425 603.425 978.5 609.5 978.5 615.575 978.5 620.499 983.425 620.499 989.5Z" stroke="#70AD47" stroke-width="3.4375" stroke-linejoin="round" stroke-miterlimit="10" fill="#70AD47"/><path d="M753.499 989.5C753.499 995.575 748.575 1000.5 742.5 1000.5 736.425 1000.5 731.5 995.575 731.5 989.5 731.5 983.425 736.425 978.5 742.5 978.5 748.575 978.5 753.499 983.425 753.499 989.5Z" stroke="#70AD47" stroke-width="3.4375" stroke-linejoin="round" stroke-miterlimit="10" fill="#70AD47"/><path d="M886.499 988.5C886.499 994.575 881.575 999.499 875.5 999.499 869.425 999.499 864.5 994.575 864.5 988.5 864.5 982.425 869.425 977.5 875.5 977.5 881.575 977.5 886.499 982.425 886.499 988.5Z" stroke="#70AD47" stroke-width="3.4375" stroke-linejoin="round" stroke-miterlimit="10" fill="#70AD47"/><path d="M1019.5 988.5C1019.5 994.575 1014.57 999.499 1008.5 999.499 1002.42 999.499 997.5 994.575 997.5 988.5 997.5 982.425 1002.42 977.5 1008.5 977.5 1014.57 977.5 1019.5 982.425 1019.5 988.5Z" stroke="#70AD47" stroke-width="3.4375" stroke-linejoin="round" stroke-miterlimit="10" fill="#70AD47"/><path d="M1152.5 988.5C1152.5 994.575 1147.57 999.499 1141.5 999.499 1135.42 999.499 1130.5 994.575 1130.5 988.5 1130.5 982.425 1135.42 977.5 1141.5 977.5 1147.57 977.5 1152.5 982.425 1152.5 988.5Z" stroke="#70AD47" stroke-width="3.4375" stroke-linejoin="round" stroke-miterlimit="10" fill="#70AD47"/><path d="M1285.5 988.5C1285.5 994.575 1280.57 999.499 1274.5 999.499 1268.42 999.499 1263.5 994.575 1263.5 988.5 1263.5 982.425 1268.42 977.5 1274.5 977.5 1280.57 977.5 1285.5 982.425 1285.5 988.5Z" stroke="#70AD47" stroke-width="3.4375" stroke-linejoin="round" stroke-miterlimit="10" fill="#70AD47"/><path d="M1418.5 988.5C1418.5 994.575 1413.57 999.499 1407.5 999.499 1401.42 999.499 1396.5 994.575 1396.5 988.5 1396.5 982.425 1401.42 977.5 1407.5 977.5 1413.57 977.5 1418.5 982.425 1418.5 988.5Z" stroke="#70AD47" stroke-width="3.4375" stroke-linejoin="round" stroke-miterlimit="10" fill="#70AD47"/><path d="M1551.5 988.5C1551.5 994.575 1546.57 999.499 1540.5 999.499 1534.42 999.499 1529.5 994.575 1529.5 988.5 1529.5 982.425 1534.42 977.5 1540.5 977.5 1546.57 977.5 1551.5 982.425 1551.5 988.5Z" stroke="#70AD47" stroke-width="3.4375" stroke-linejoin="round" stroke-miterlimit="10" fill="#70AD47"/></g><g clip-path="url(#clip17)"><text fill="#595959" font-family="Calibri,Calibri_MSFontService,sans-serif" font-weight="400" font-size="55" transform="matrix(1 0 0 1 131.529 1005)">0</text></g><g clip-path="url(#clip18)"><text fill="#595959" font-family="Calibri,Calibri_MSFontService,sans-serif" font-weight="400" font-size="55" transform="matrix(1 0 0 1 131.529 886)">1</text></g><g clip-path="url(#clip19)"><text fill="#595959" font-family="Calibri,Calibri_MSFontService,sans-serif" font-weight="400" font-size="55" transform="matrix(1 0 0 1 131.529 767)">2</text></g><g clip-path="url(#clip20)"><text fill="#595959" font-family="Calibri,Calibri_MSFontService,sans-serif" font-weight="400" font-size="55" transform="matrix(1 0 0 1 131.529 648)">3</text></g><g clip-path="url(#clip21)"><text fill="#595959" font-family="Calibri,Calibri_MSFontService,sans-serif" font-weight="400" font-size="55" transform="matrix(1 0 0 1 131.529 529)">4</text></g><g clip-path="url(#clip22)"><text fill="#595959" font-family="Calibri,Calibri_MSFontService,sans-serif" font-weight="400" font-size="55" transform="matrix(1 0 0 1 131.529 411)">5</text></g><g clip-path="url(#clip23)"><text fill="#595959" font-family="Calibri,Calibri_MSFontService,sans-serif" font-weight="400" font-size="55" transform="matrix(1 0 0 1 131.529 292)">6</text></g><g clip-path="url(#clip24)"><text fill="#595959" font-family="Calibri,Calibri_MSFontService,sans-serif" font-weight="400" font-size="55" transform="matrix(1 0 0 1 131.529 173)">7</text></g><g clip-path="url(#clip25)"><text fill="#595959" font-family="Calibri,Calibri_MSFontService,sans-serif" font-weight="400" font-size="55" transform="matrix(1 0 0 1 196.49 1076)">0</text></g><g clip-path="url(#clip26)"><text fill="#595959" font-family="Calibri,Calibri_MSFontService,sans-serif" font-weight="400" font-size="55" transform="matrix(1 0 0 1 420.668 1076)">2000</text></g><g clip-path="url(#clip27)"><text fill="#595959" font-family="Calibri,Calibri_MSFontService,sans-serif" font-weight="400" font-size="55" transform="matrix(1 0 0 1 686.646 1076)">4000</text></g><g clip-path="url(#clip28)"><text fill="#595959" font-family="Calibri,Calibri_MSFontService,sans-serif" font-weight="400" font-size="55" transform="matrix(1 0 0 1 952.624 1076)">6000</text></g><g clip-path="url(#clip29)"><text fill="#595959" font-family="Calibri,Calibri_MSFontService,sans-serif" font-weight="400" font-size="55" transform="matrix(1 0 0 1 1218.6 1076)">8000</text></g><g clip-path="url(#clip30)"><text fill="#595959" font-family="Calibri,Calibri_MSFontService,sans-serif" font-weight="400" font-size="55" transform="matrix(1 0 0 1 1470.65 1076)">10000</text></g><g clip-path="url(#clip31)"><text fill="#595959" font-family="Calibri,Calibri_MSFontService,sans-serif" font-weight="400" font-size="55" transform="matrix(1 0 0 1 1736.62 1076)">12000</text></g><g clip-path="url(#clip32)"><text fill="#595959" font-family="Calibri,Calibri_MSFontService,sans-serif" font-weight="400" font-size="55" transform="matrix(6.12323e-17 -1 1 6.12323e-17 102.631 771)">Execution Time(s)</text></g><g clip-path="url(#clip33)"><text fill="#595959" font-family="Calibri,Calibri_MSFontService,sans-serif" font-weight="400" font-size="55" transform="matrix(1 0 0 1 909.231 1104)">Data size</text></g><g clip-path="url(#clip34)"><text fill="#595959" font-family="Calibri,Calibri_MSFontService,sans-serif" font-weight="400" font-size="73" transform="matrix(1 0 0 1 642.927 104)">All Sorting Algorithm</text></g><g clip-path="url(#clip35)"><path d="M247.5 222.5 335.5 222.5" stroke="#4472C4" stroke-width="6.875" stroke-linecap="round" stroke-linejoin="round" stroke-miterlimit="10" fill="none" fill-rule="evenodd"/></g><g clip-path="url(#clip36)"><path d="M302 222C302 228.075 297.075 232.999 291 232.999 284.925 232.999 280 228.075 280 222 280 215.924 284.925 211 291 211 297.075 211 302 215.924 302 222Z" stroke="#4472C4" stroke-width="3.4375" stroke-linejoin="round" stroke-miterlimit="10" fill="#4472C4"/></g><g clip-path="url(#clip37)"><text fill="#595959" font-family="Calibri,Calibri_MSFontService,sans-serif" font-weight="400" font-size="55" transform="matrix(1 0 0 1 344.46 238)">Insertion sort</text></g><g clip-path="url(#clip38)"><path d="M247.5 344.5 335.5 344.5" stroke="#ED7D31" stroke-width="6.875" stroke-linecap="round" stroke-linejoin="round" stroke-miterlimit="10" fill="none" fill-rule="evenodd"/></g><g clip-path="url(#clip39)"><path d="M302 344C302 350.075 297.075 354.999 291 354.999 284.925 354.999 280 350.075 280 344 280 337.925 284.925 333 291 333 297.075 333 302 337.925 302 344Z" stroke="#ED7D31" stroke-width="3.4375" stroke-linejoin="round" stroke-miterlimit="10" fill="#ED7D31"/></g><g clip-path="url(#clip40)"><text fill="#595959" font-family="Calibri,Calibri_MSFontService,sans-serif" font-weight="400" font-size="55" transform="matrix(1 0 0 1 344.46 360)">Selection sort</text></g><g clip-path="url(#clip41)"><path d="M247.5 465.5 335.5 465.5" stroke="#A5A5A5" stroke-width="6.875" stroke-linecap="round" stroke-linejoin="round" stroke-miterlimit="10" fill="none" fill-rule="evenodd"/></g><g clip-path="url(#clip42)"><path d="M302 465C302 471.075 297.075 475.999 291 475.999 284.925 475.999 280 471.075 280 465 280 458.925 284.925 454 291 454 297.075 454 302 458.925 302 465Z" stroke="#A5A5A5" stroke-width="3.4375" stroke-linejoin="round" stroke-miterlimit="10" fill="#A5A5A5"/></g><g clip-path="url(#clip43)"><text fill="#595959" font-family="Calibri,Calibri_MSFontService,sans-serif" font-weight="400" font-size="55" transform="matrix(1 0 0 1 344.46 481)">Quick sort</text></g><g clip-path="url(#clip44)"><path d="M247.5 587.5 335.5 587.5" stroke="#5B9BD5" stroke-width="6.875" stroke-linecap="round" stroke-linejoin="round" stroke-miterlimit="10" fill="none" fill-rule="evenodd"/></g><g clip-path="url(#clip45)"><path d="M302 587C302 593.075 297.075 597.999 291 597.999 284.925 597.999 280 593.075 280 587 280 580.925 284.925 576 291 576 297.075 576 302 580.925 302 587Z" stroke="#5B9BD5" stroke-width="3.4375" stroke-linejoin="round" stroke-miterlimit="10" fill="#5B9BD5"/></g><g clip-path="url(#clip46)"><text fill="#595959" font-family="Calibri,Calibri_MSFontService,sans-serif" font-weight="400" font-size="55" transform="matrix(1 0 0 1 344.46 603)">Merge sort</text></g><g clip-path="url(#clip47)"><path d="M247.5 709.5 335.5 709.5" stroke="#FFC000" stroke-width="6.875" stroke-linecap="round" stroke-linejoin="round" stroke-miterlimit="10" fill="none" fill-rule="evenodd"/></g><g clip-path="url(#clip48)"><path d="M302 709C302 715.075 297.075 719.999 291 719.999 284.925 719.999 280 715.075 280 709 280 702.925 284.925 698 291 698 297.075 698 302 702.925 302 709Z" stroke="#FFC000" stroke-width="3.4375" stroke-linejoin="round" stroke-miterlimit="10" fill="#FFC000"/></g><g clip-path="url(#clip49)"><text fill="#595959" font-family="Calibri,Calibri_MSFontService,sans-serif" font-weight="400" font-size="55" transform="matrix(1 0 0 1 344.46 724)">Heap sort</text></g><g clip-path="url(#clip50)"><path d="M247.5 830.5 335.5 830.5" stroke="#70AD47" stroke-width="6.875" stroke-linecap="round" stroke-linejoin="round" stroke-miterlimit="10" fill="none" fill-rule="evenodd"/></g><g clip-path="url(#clip51)"><path d="M302 830C302 836.075 297.075 840.999 291 840.999 284.925 840.999 280 836.075 280 830 280 823.925 284.925 819 291 819 297.075 819 302 823.925 302 830Z" stroke="#70AD47" stroke-width="3.4375" stroke-linejoin="round" stroke-miterlimit="10" fill="#70AD47"/></g><g clip-path="url(#clip52)"><text fill="#595959" font-family="Calibri,Calibri_MSFontService,sans-serif" font-weight="400" font-size="55" transform="matrix(1 0 0 1 344.46 846)">Radix Sort</text></g><rect x="0.499836" y="0.499836" width="1903" height="1126" stroke="#D9D9D9" stroke-width="3.4375" stroke-linejoin="round" stroke-miterlimit="10" fill="none"/></g></svg>